<?xml version="1.0" standalone="no"?>
<!DOCTYPE svg PUBLIC "-//W3C//DTD SVG 20010904//EN"
 "http://www.w3.org/TR/2001/REC-SVG-20010904/DTD/svg10.dtd">
<svg version="1.0" xmlns="http://www.w3.org/2000/svg"
 width="1000.000000pt" height="1000.000000pt" viewBox="0 0 1000.000000 1000.000000"
 preserveAspectRatio="xMidYMid meet">

<g transform="translate(0.000000,1000.000000) scale(0.100000,-0.100000)"
fill="#b9a89a" stroke="none">
<path d="M5142 9088 c-35 -46 -601 -917 -2544 -3908 -244 -377 -894 -1378
-1443 -2225 -549 -847 -1011 -1556 -1025 -1575 -15 -19 -35 -50 -44 -67 l-17
-33 83 0 c46 0 1930 -81 4188 -180 2258 -99 4175 -182 4260 -185 85 -3 211
-10 280 -16 69 -6 208 -12 310 -14 102 -2 308 -9 458 -16 150 -6 275 -9 278
-6 3 3 -17 43 -45 89 -56 93 -4614 8056 -4639 8103 -8 17 -21 41 -28 55 -7 13
-17 26 -22 28 -6 2 -28 -21 -50 -50z m164 -323 l117 -206 -20 -27 c-11 -15
-1020 -1399 -2243 -3077 -1223 -1677 -2252 -3087 -2288 -3133 -60 -75 -72 -89
-72 -79 0 2 321 498 714 1103 748 1150 952 1465 2629 4049 566 872 1032 1583
1037 1580 4 -3 61 -97 126 -210z m280 -493 c62 -108 114 -205 118 -215 5 -14
-36 -69 -162 -220 -92 -111 -185 -224 -207 -252 -165 -208 -3842 -4635 -3894
-4688 -94 -98 -112 -101 -44 -9 32 44 960 1317 2063 2830 1103 1514 2007 2752
2010 2752 3 0 55 -89 116 -198z m203 -492 c18 -47 51 -141 75 -210 24 -69 53
-153 66 -187 l22 -63 -30 -37 c-52 -64 -4086 -4090 -4112 -4103 -24 -13 -24
-12 4 21 16 19 825 993 1797 2164 973 1172 1851 2228 1951 2349 l183 218 6
-33 c4 -19 21 -72 38 -119z m239 -670 c10 -33 46 -324 59 -475 l5 -70 -1773
-1438 c-1529 -1240 -1859 -1501 -2009 -1595 -14 -8 808 818 1825 1836 l1850
1852 16 -37 c9 -21 21 -54 27 -73z m1967 -3042 c980 -1712 1782 -3114 1781
-3115 -3 -4 -607 25 -611 29 -3 3 -2842 5947 -2922 6118 -25 52 -42 92 -38 88
4 -3 809 -1407 1790 -3120z m-402 2 c802 -1680 1461 -3063 1464 -3072 5 -16
-2 -17 -73 -12 -112 8 -548 54 -552 59 -6 5 -2332 6126 -2332 6133 1 14 59
-106 1493 -3108z m-1448 2066 c29 -250 33 -312 23 -322 -12 -11 -1512 -909
-1700 -1017 -46 -26 -94 -57 -108 -67 -69 -52 -1187 -711 -1232 -726 -29 -9
-64 -24 -78 -32 l-25 -15 20 20 c42 45 3059 2485 3062 2476 1 -4 19 -147 38
-317z m1159 -2379 c565 -1483 1026 -2698 1026 -2700 0 -10 -162 21 -355 68
-121 29 -262 61 -314 71 -74 15 -96 23 -102 39 -8 17 -1263 5097 -1284 5195
-4 19 -5 33 -2 30 3 -3 467 -1219 1031 -2703z m-454 -28 c335 -1362 610 -2479
610 -2483 0 -12 -106 28 -490 187 -193 79 -206 87 -213 135 -3 20 -107 942
-232 2047 -124 1106 -230 2046 -236 2090 -22 175 -59 491 -58 505 0 8 2 11 5
5 2 -5 278 -1124 614 -2486z m-651 1911 c0 -39 -91 -497 -100 -504 -2 -1 -510
-208 -1129 -460 -619 -251 -1138 -466 -1153 -477 -15 -11 -51 -24 -80 -29 -29
-5 -86 -18 -127 -29 -41 -11 -76 -18 -78 -17 -1 2 458 279 1020 616 563 337
1160 695 1328 796 333 199 318 194 319 104z m266 -2320 c107 -943 192 -1716
190 -1718 -8 -9 -525 242 -525 254 0 6 29 708 65 1559 36 852 65 1569 66 1594
0 25 2 42 5 36 2 -5 91 -782 199 -1725z m-389 1693 c-3 -10 -21 -94 -41 -187
-19 -94 -41 -177 -49 -185 -8 -9 -30 -47 -49 -86 l-35 -70 -738 -113 c-407
-63 -779 -122 -829 -132 -107 -21 -281 -36 -250 -20 32 16 1979 809 1988 809
5 1 6 -7 3 -16z m34 -1552 c-33 -823 -64 -1513 -68 -1535 l-7 -39 -81 64 c-45
35 -113 89 -152 119 -40 30 -72 58 -72 61 0 3 -33 32 -74 63 l-73 58 11 61
c57 297 572 2695 574 2672 2 -16 -24 -702 -58 -1524z m-260 925 c0 -2 -32 -69
-70 -150 -68 -144 -71 -147 -98 -142 -15 4 -247 28 -515 55 -269 27 -491 52
-495 55 -3 3 3 6 14 6 10 1 273 41 584 89 645 102 580 92 580 87z m-125 -1032
c-113 -533 -209 -978 -213 -989 -8 -17 -20 -4 -93 89 -46 59 -121 155 -166
213 -46 59 -83 111 -83 117 0 13 752 1547 757 1543 1 -2 -90 -440 -202 -973z
m-1355 777 c0 -11 104 -217 231 -458 361 -684 450 -858 426 -833 -2 3 -267
286 -587 630 l-582 625 43 7 c24 4 107 12 184 18 77 6 163 15 190 20 84 13 95
12 95 -9z m266 -17 c82 -8 150 -17 153 -19 5 -6 82 -697 79 -713 -3 -11 -398
728 -398 743 0 7 -2 7 166 -11z m-240 -730 c733 -787 765 -821 744 -809 -8 5
-458 308 -999 674 l-983 664 48 20 c27 10 90 31 139 45 179 50 370 100 386
101 8 1 307 -312 665 -695z m989 656 c110 -11 219 -22 242 -25 l43 -6 -16 -32
c-9 -18 -18 -33 -19 -35 -3 -4 -518 108 -524 113 -9 10 78 5 274 -15z m-168
-101 c161 -34 292 -63 290 -63 -1 -1 -124 -122 -273 -269 l-270 -268 -32 298
c-18 164 -35 315 -38 337 -5 34 -4 37 12 33 11 -3 151 -34 311 -68z m-948
-883 c673 -455 1224 -835 1265 -871 39 -35 85 -75 101 -90 17 -15 23 -25 15
-22 -17 6 -3123 1478 -3129 1483 -7 6 22 26 139 95 58 35 124 76 148 92 74 49
234 129 251 124 9 -2 554 -367 1210 -811z m1076 292 c-120 -243 -220 -446
-224 -450 -3 -4 -42 63 -86 148 l-80 154 300 300 c164 164 301 298 303 296 2
-2 -94 -204 -213 -448z m-1156 -680 c965 -458 1769 -843 1786 -855 16 -13 58
-37 93 -54 67 -34 91 -54 45 -39 -15 5 -984 309 -2153 675 -1169 366 -2131
667 -2139 670 -15 6 27 38 294 227 150 107 303 208 313 208 3 0 795 -375 1761
-832z m-24 -428 c1336 -418 2444 -765 2460 -771 17 -6 53 -18 80 -26 61 -19
141 -55 105 -48 -236 47 -5548 1136 -5574 1143 -28 8 -26 10 145 176 174 169
311 284 339 285 8 1 1108 -341 2445 -759z m-2905 196 c126 -25 5549 -1135
5867 -1201 149 -31 334 -83 248 -70 -16 2 -82 9 -145 15 -253 24 -6521 737
-6526 743 -11 11 259 370 341 454 44 45 82 82 85 83 3 0 62 -11 130 -24z
m2350 -936 c1653 -187 3142 -356 3310 -376 168 -19 366 -42 440 -50 180 -19
197 -24 65 -19 -753 29 -7112 307 -7146 313 l-46 7 154 236 c152 233 153 235
185 232 18 -2 1385 -156 3038 -343z"/>
</g>
</svg>
