<?xml version="1.0" encoding="iso-8859-1"?>
<!-- Generator: Adobe Illustrator 19.0.0, SVG Export Plug-In . SVG Version: 6.00 Build 0)  -->
<svg version="1.1" id="Capa_1" xmlns="http://www.w3.org/2000/svg" xmlns:xlink="http://www.w3.org/1999/xlink" x="0px" y="0px"
	 viewBox="0 0 512 512" style="enable-background:new 0 0 512 512;" xml:space="preserve">
<g>
	<g>
		<path d="M477.858,8.533H34.142C15.317,8.533,0,23.851,0,42.675v281.591c0,4.71,3.823,8.533,8.533,8.533h494.933
			c4.71,0,8.533-3.823,8.533-8.533V42.675C512,23.851,496.683,8.533,477.858,8.533z M494.933,315.733H17.067V42.675
			c0-9.421,7.663-17.075,17.075-17.075h443.716c9.412,0,17.075,7.654,17.075,17.075V315.733z"/>
	</g>
</g>
<g>
	<g>
		<path d="M503.467,315.733H8.533c-4.71,0-8.533,3.823-8.533,8.533v42.658c0,18.825,15.317,34.142,34.142,34.142h443.716
			c18.825,0,34.142-15.317,34.142-34.142v-42.658C512,319.556,508.177,315.733,503.467,315.733z M494.933,366.925
			c0,9.421-7.663,17.075-17.075,17.075H34.142c-9.412,0-17.075-7.654-17.075-17.075V332.8h477.867V366.925z"/>
	</g>
</g>
<g>
	<g>
		<path d="M281.6,349.867h-51.2c-4.71,0-8.533,3.823-8.533,8.533s3.823,8.533,8.533,8.533h51.2c4.71,0,8.533-3.823,8.533-8.533
			S286.31,349.867,281.6,349.867z"/>
	</g>
</g>
<g>
	<g>
		<path d="M469.333,42.667H42.667c-4.71,0-8.533,3.823-8.533,8.533v273.067c0,4.71,3.823,8.533,8.533,8.533h426.667
			c4.71,0,8.533-3.823,8.533-8.533V51.2C477.867,46.49,474.044,42.667,469.333,42.667z M460.8,315.733H51.2v-256h409.6V315.733z"/>
	</g>
</g>
<g>
	<g>
		<path d="M366.933,452.267H145.067c-14.114,0-25.6,11.486-25.6,25.6s11.486,25.6,25.6,25.6h221.867c14.114,0,25.6-11.486,25.6-25.6
			S381.047,452.267,366.933,452.267z M366.933,486.4H145.067c-4.71,0-8.533-3.831-8.533-8.533s3.823-8.533,8.533-8.533h221.867
			c4.71,0,8.533,3.831,8.533,8.533S371.644,486.4,366.933,486.4z"/>
	</g>
</g>
<g>
	<g>
		<path d="M349.867,452.267c-28.314,0-42.667-20.096-42.667-59.733c0-4.71-3.823-8.533-8.533-8.533h-85.333
			c-4.71,0-8.533,3.823-8.533,8.533c0,39.637-14.353,59.733-42.667,59.733c-4.71,0-8.533,3.823-8.533,8.533
			c0,4.71,3.823,8.533,8.533,8.533h187.733c4.71,0,8.533-3.823,8.533-8.533C358.4,456.09,354.577,452.267,349.867,452.267z
			 M203.699,452.267c10.505-11.639,16.691-28.971,17.937-51.2h68.736c1.237,22.229,7.424,39.561,17.937,51.2H203.699z"/>
	</g>
</g>
<g>
	<g>
		<path d="M256,76.8c-61.167,0-110.933,49.766-110.933,110.933S194.833,298.667,256,298.667S366.933,248.9,366.933,187.733
			S317.167,76.8,256,76.8z M256,281.6c-51.755,0-93.867-42.112-93.867-93.867S204.245,93.867,256,93.867
			c51.755,0,93.867,42.112,93.867,93.867S307.755,281.6,256,281.6z"/>
	</g>
</g>
<g>
	<g>
		<path d="M199.799,187.733l19.567-19.567c3.337-3.336,3.337-8.73,0-12.066c-3.328-3.337-8.738-3.337-12.066,0l-25.6,25.6
			c-3.337,3.337-3.337,8.73,0,12.066l25.6,25.6c1.664,1.664,3.849,2.5,6.033,2.5c2.185,0,4.369-0.836,6.033-2.5
			c3.337-3.337,3.337-8.73,0-12.066L199.799,187.733z"/>
	</g>
</g>
<g>
	<g>
		<path d="M330.3,181.7l-25.6-25.6c-3.328-3.337-8.738-3.337-12.066,0c-3.337,3.337-3.337,8.73,0,12.066l19.567,19.567
			L292.634,207.3c-3.337,3.336-3.337,8.73,0,12.066c1.664,1.664,3.849,2.5,6.033,2.5c2.185,0,4.369-0.836,6.033-2.5l25.6-25.6
			C333.636,190.43,333.636,185.037,330.3,181.7z"/>
	</g>
</g>
<g>
	<g>
		<path d="M275.763,128.435c-4.446-1.485-9.301,0.93-10.795,5.393l-34.133,102.4c-1.485,4.471,0.93,9.301,5.402,10.795
			c0.887,0.299,1.801,0.444,2.697,0.444c3.575,0,6.903-2.261,8.098-5.837l34.133-102.4
			C282.65,134.758,280.235,129.929,275.763,128.435z"/>
	</g>
</g>
<g>
	<g>
		<path d="M110.933,76.8H76.8c-4.71,0-8.533,3.823-8.533,8.533v34.133c0,4.71,3.823,8.533,8.533,8.533s8.533-3.823,8.533-8.533
			v-25.6h25.6c4.71,0,8.533-3.823,8.533-8.533S115.644,76.8,110.933,76.8z"/>
	</g>
</g>
<g>
	<g>
		<path d="M435.2,247.467c-4.71,0-8.533,3.823-8.533,8.533v25.6h-25.6c-4.71,0-8.533,3.823-8.533,8.533s3.823,8.533,8.533,8.533
			H435.2c4.71,0,8.533-3.823,8.533-8.533V256C443.733,251.29,439.91,247.467,435.2,247.467z"/>
	</g>
</g>
<g>
</g>
<g>
</g>
<g>
</g>
<g>
</g>
<g>
</g>
<g>
</g>
<g>
</g>
<g>
</g>
<g>
</g>
<g>
</g>
<g>
</g>
<g>
</g>
<g>
</g>
<g>
</g>
<g>
</g>
</svg>
