<?xml version="1.0" encoding="iso-8859-1"?>
<!-- Generator: Adobe Illustrator 19.0.0, SVG Export Plug-In . SVG Version: 6.00 Build 0)  -->
<svg version="1.1" id="Capa_1" xmlns="http://www.w3.org/2000/svg" xmlns:xlink="http://www.w3.org/1999/xlink" x="0px" y="0px"
	 viewBox="0 0 512 512" style="enable-background:new 0 0 512 512;" xml:space="preserve">
<g>
	<g>
		<path d="M401.652,172.605c0.067-1.05,0.101-2.1,0.101-3.146c0-26.916-21.28-48.957-47.908-50.199
			C336.343,79.943,296.855,54,253.4,54c-49.16,0-92.365,33.054-105.683,79.681c-34.379,2.359-61.631,31.068-61.631,66.018
			c0,36.489,29.702,66.175,66.21,66.175h8.796c5.522,0,10-4.478,10-10c0-5.522-4.478-10-10-10h-8.796
			c-25.48,0-46.21-20.714-46.21-46.175c0-25.46,20.729-46.174,46.21-46.174c0.799,0,1.68,0.028,2.693,0.087
			c4.956,0.292,9.369-3.104,10.37-7.965C173.914,104.132,210.94,74,253.4,74c37.541,0,71.46,23.665,84.404,58.887
			c1.579,4.301,5.891,6.974,10.434,6.496c1.139-0.12,2.197-0.179,3.235-0.179c16.696,0,30.28,13.572,30.28,30.255
			c0,2.214-0.251,4.456-0.746,6.662c-1.071,4.772,1.467,9.62,6,11.458c11.485,4.656,18.906,15.662,18.906,28.039
			c0,16.683-13.583,30.255-30.279,30.255h-24.727c-5.522,0-10,4.478-10,10c0,5.522,4.478,10,10,10h24.727
			c27.724,0,50.279-22.544,50.279-50.255C425.913,197.749,416.607,181.602,401.652,172.605z"/>
	</g>
</g>
<g>
	<g>
		<path d="M316.444,7.181C296.768,2.416,276.431,0,256,0C187.62,0,123.333,26.629,74.98,74.98C26.629,123.332,0,187.62,0,256
			c0,56.441,18.814,111.545,53.117,156.107c-8.078,13.101-6.453,30.536,4.894,41.883c6.628,6.628,15.334,9.941,24.041,9.941
			c8.707,0,17.413-3.313,24.041-9.941c0,0,0.001,0,0.001-0.001c13.255-13.256,13.255-34.826-0.001-48.083
			c-10.229-10.229-25.407-12.556-37.899-6.997C37.061,358.009,20,307.612,20,256C20,125.869,125.869,20,256,20
			c18.847,0,37.6,2.227,55.737,6.618c5.369,1.305,10.773-1.998,12.072-7.365C325.109,13.885,321.811,8.48,316.444,7.181z
			 M72.151,420.049c0.043-0.043,0.09-0.078,0.134-0.121c0.005-0.004,0.01-0.007,0.015-0.011c0.102-0.083,0.19-0.176,0.288-0.262
			c2.671-2.456,6.063-3.7,9.464-3.7c3.585,0,7.171,1.364,9.899,4.093c5.458,5.459,5.458,14.342,0.001,19.8
			c-5.461,5.459-14.343,5.458-19.8,0.001C66.694,434.39,66.694,425.507,72.151,420.049z"/>
	</g>
</g>
<g>
	<g>
		<path d="M458.883,99.893c8.078-13.101,6.453-30.536-4.894-41.883c-13.255-13.255-34.824-13.256-48.083,0.001
			c-13.255,13.256-13.255,34.826,0.001,48.083c6.628,6.628,15.334,9.941,24.041,9.941c4.731,0,9.46-0.987,13.857-2.944
			C474.939,153.992,492,204.389,492,256c0,130.131-105.869,236-236,236c-18.534,0-36.982-2.154-54.833-6.402
			c-5.365-1.271-10.765,2.04-12.044,7.413c-1.278,5.373,2.041,10.766,7.413,12.044C215.902,509.663,235.909,512,256,512
			c68.38,0,132.667-26.629,181.02-74.98C485.371,388.668,512,324.38,512,256C512,199.56,493.186,144.456,458.883,99.893z
			 M439.848,91.951c-0.043,0.043-0.091,0.079-0.135,0.122c-0.004,0.004-0.009,0.007-0.014,0.01c-0.102,0.083-0.19,0.176-0.288,0.262
			c-5.486,5.046-14.045,4.924-19.362-0.393c-5.458-5.459-5.458-14.342-0.001-19.8c2.73-2.729,6.315-4.094,9.9-4.094
			c3.585,0,7.171,1.364,9.899,4.093C445.305,77.61,445.305,86.493,439.848,91.951z"/>
	</g>
</g>
<g>
	<g>
		<path d="M168.36,475.195c-0.062-0.026-0.139-0.059-0.21-0.087c-5.046-2.071-10.829,0.287-12.983,5.313
			c-2.176,5.076,0.176,10.955,5.252,13.131c0.062,0.026,0.139,0.059,0.21,0.087c1.239,0.509,2.523,0.75,3.787,0.75
			c3.88-0.001,7.571-2.272,9.196-6.063C175.788,483.25,173.437,477.371,168.36,475.195z"/>
	</g>
</g>
<g>
	<g>
		<path d="M351.804,18.535l-0.439-0.177c-5.133-2.047-10.948,0.456-12.992,5.586c-2.046,5.13,0.455,10.947,5.585,12.992l0.395,0.159
			c1.222,0.49,2.482,0.723,3.723,0.723c3.964,0,7.716-2.374,9.283-6.277C359.417,26.415,356.929,20.593,351.804,18.535z"/>
	</g>
</g>
<g>
	<g>
		<path d="M388,326h-18v-30c0-5.522-4.478-10-10-10h-94v-40h18c5.522,0,10-4.478,10-10v-56c0-5.522-4.478-10-10-10h-56
			c-5.522,0-10,4.478-10,10v56c0,5.522,4.478,10,10,10h18v40h-94c-5.522,0-10,4.478-10,10v30h-18c-5.522,0-10,4.478-10,10v56
			c0,5.522,4.478,10,10,10h56c5.522,0,10-4.478,10-10v-56c0-5.522-4.478-10-10-10h-18v-20h84v20h-18c-5.522,0-10,4.478-10,10v56
			c0,5.522,4.478,10,10,10h56c5.522,0,10-4.478,10-10v-56c0-5.522-4.478-10-10-10h-18v-20h84v20h-18c-5.522,0-10,4.478-10,10v56
			c0,5.522,4.478,10,10,10h56c5.522,0,10-4.478,10-10v-56C398,330.478,393.522,326,388,326z M170,346v36h-36v-36H170z M274,346v36
			h-36v-36H274z M238,226v-36h36v36H238z M378,382h-36v-36h36V382z"/>
	</g>
</g>
<g>
</g>
<g>
</g>
<g>
</g>
<g>
</g>
<g>
</g>
<g>
</g>
<g>
</g>
<g>
</g>
<g>
</g>
<g>
</g>
<g>
</g>
<g>
</g>
<g>
</g>
<g>
</g>
<g>
</g>
</svg>
