<?xml version="1.0" encoding="iso-8859-1"?>
<!-- Generator: Adobe Illustrator 19.0.0, SVG Export Plug-In . SVG Version: 6.00 Build 0)  -->
<svg version="1.1" id="Capa_1" xmlns="http://www.w3.org/2000/svg" xmlns:xlink="http://www.w3.org/1999/xlink" x="0px" y="0px"
	 viewBox="0 0 496 496" style="enable-background:new 0 0 496 496;" xml:space="preserve">
<g>
	<g>
		<path d="M427.008,80H96V48H0v64h48v32H16v112h32v32H16v80h32v80h48v-48h16v48h64v-8c0-4.416,3.584-8,8-8s8,3.584,8,8v8h64v-8
			c0-4.416,3.584-8,8-8c4.416,0,8,3.584,8,8v8h144v-8c0-4.416,3.584-8,8-8c4.416,0,8,3.584,8,8v8h48v-48h16V140.368L427.008,80z
			 M48,352H32v-48h16V352z M48,240H32v-80h16V240z M80,432H64V96H16V64h64V432z M96,96h137.056l-21.336,32H96V96z M96,384v-32
			h115.72l21.336,32H96z M304,432h-17.368c-3.304-9.312-12.2-16-22.632-16c-10.432,0-19.328,6.688-22.632,16h-34.736
			c-3.304-9.312-12.2-16-22.632-16s-19.328,6.688-22.632,16H128v-32h176V432z M336,432h-16v-32h16V432z M368,432h-16v-32h16V432z
			 M464,432h-17.368c-3.304-9.312-12.2-16-22.632-16c-10.432,0-19.328,6.688-22.632,16H384v-32h80V432z M480,384H252.28l-32-48H96
			V144h124.28l32-48h168.712L480,147.632V384z"/>
	</g>
</g>
<g>
	<g>
		<path d="M336,112c-70.576,0-128,57.424-128,128s57.424,128,128,128s128-57.424,128-128S406.576,112,336,112z M430.232,179.704
			c7.04,10.96,12.232,23.184,15.112,36.296h-51.408L430.232,179.704z M360,130.656c13.112,2.88,25.336,8.072,36.296,15.112
			L360,182.064V130.656z M360,208v-3.312l49.232-49.232c4.04,3.496,7.816,7.272,11.312,11.312L371.312,216H368v0.248
			c-2.336-3.144-5.104-5.912-8.248-8.248H360z M328,128.408c2.656-0.192,5.296-0.408,8-0.408c2.704,0,5.344,0.216,8,0.408v72.4
			c-2.584-0.528-5.264-0.808-8-0.808c-2.736,0-5.416,0.28-8,0.808V128.408z M312,130.656v51.408l-36.296-36.296
			C286.664,138.728,298.888,133.536,312,130.656z M262.768,155.456L312,204.688V208h0.248c-3.144,2.336-5.912,5.104-8.248,8.248V216
			h-3.312l-49.232-49.232C254.952,162.728,258.728,158.952,262.768,155.456z M241.768,179.704L278.064,216h-51.408
			C229.536,202.888,234.728,190.664,241.768,179.704z M224,240c0-2.704,0.216-5.344,0.408-8h72.4c-0.528,2.584-0.808,5.264-0.808,8
			c0,2.736,0.28,5.416,0.808,8h-72.4C224.216,245.344,224,242.704,224,240z M241.768,300.296
			c-7.04-10.96-12.232-23.184-15.112-36.296h51.408L241.768,300.296z M312,349.344c-13.112-2.88-25.336-8.072-36.296-15.112
			L312,297.936V349.344z M312,272v3.312l-49.232,49.232c-4.032-3.504-7.816-7.28-11.312-11.312L300.688,264H304v-0.248
			c2.336,3.144,5.104,5.912,8.248,8.248H312z M344,351.592c-2.656,0.192-5.296,0.408-8,0.408c-2.704,0-5.344-0.216-8-0.408v-72.4
			c2.584,0.528,5.264,0.808,8,0.808c2.736,0,5.416-0.28,8-0.808V351.592z M336,264c-13.232,0-24-10.768-24-24s10.768-24,24-24
			s24,10.768,24,24S349.232,264,336,264z M360,349.344v-51.408l36.296,36.296C385.336,341.272,373.112,346.464,360,349.344z
			 M409.232,324.544L360,275.312V272h-0.248c3.144-2.336,5.912-5.104,8.248-8.248V264h3.312l49.232,49.232
			C417.048,317.272,413.272,321.048,409.232,324.544z M430.232,300.296L393.936,264h51.408
			C442.464,277.112,437.272,289.336,430.232,300.296z M375.192,248c0.528-2.584,0.808-5.264,0.808-8c0-2.736-0.28-5.416-0.808-8
			h72.4c0.192,2.656,0.408,5.296,0.408,8s-0.216,5.344-0.408,8H375.192z"/>
	</g>
</g>
<g>
	<g>
		<path d="M112,200v80h80v-80H112z M176,264h-48v-48h48V264z"/>
	</g>
</g>
<g>
	<g>
		<rect x="112" y="160" width="16" height="16"/>
	</g>
</g>
<g>
	<g>
		<rect x="112" y="304" width="16" height="16"/>
	</g>
</g>
<g>
	<g>
		<rect x="328" y="232" width="16" height="16"/>
	</g>
</g>
<g>
</g>
<g>
</g>
<g>
</g>
<g>
</g>
<g>
</g>
<g>
</g>
<g>
</g>
<g>
</g>
<g>
</g>
<g>
</g>
<g>
</g>
<g>
</g>
<g>
</g>
<g>
</g>
<g>
</g>
</svg>
