<?xml version="1.0" encoding="iso-8859-1"?>
<!-- Generator: Adobe Illustrator 19.0.0, SVG Export Plug-In . SVG Version: 6.00 Build 0)  -->
<svg version="1.1" id="Capa_1" xmlns="http://www.w3.org/2000/svg" xmlns:xlink="http://www.w3.org/1999/xlink" x="0px" y="0px"
	 viewBox="0 0 511.546 511.546" style="enable-background:new 0 0 511.546 511.546;" xml:space="preserve">
<g>
	<g>
		<path d="M483.923,177.413l-14.433-52.9c-7.102-25.91-22.907-48.586-44.758-64.217C373.313,23.705,312.36,2.864,249.303,0.315
			c-1.194-0.327-2.446-0.387-3.666-0.177c-9.053-0.265-18.127-0.15-27.223,0.345c-31.057,1.721-61.705,7.905-91,18.362l-54.6,19.487
			C55.054,44.599,45,63.374,49.631,81.629c1.125,4.51,0.602,9.274-1.475,13.433l-0.009,0.009l-1.683,3.367
			c-13.934,27.979-21.882,58.555-23.335,89.778c-0.1,0.605-0.133,1.219-0.098,1.832c-1.011,23.097,1.541,46.212,7.567,68.532
			l1.308,4.758c1.248,4.601,0.568,9.512-1.883,13.6l-16.375,27.279c-5.403,8.997-6.636,19.897-3.379,29.874
			c3.257,9.977,10.683,18.05,20.354,22.126c0,0,161.316,68.063,267.404,112.824c0.203,0.075,0.383,0.191,0.592,0.25
			c36.259,15.298,65.973,27.836,80.483,33.958c0.438,0.234,0.896,0.427,1.369,0.577c5.202,2.195,8.148,3.439,8.244,3.479
			c6.628,2.806,13.753,4.249,20.95,4.242c13.199-0.286,26.015-4.492,36.817-12.083c22.882-15.985,39.207-39.71,45.961-66.793
			c0.999-1.367,1.556-3.006,1.598-4.699c-0.051-0.668-0.184-1.327-0.396-1.962c0.482-3.276,0.729-6.581,0.737-9.892
			c-0.025-6.996-0.028-13.993-0.008-20.992l0.008-6.992l1.108-1.104c4.865-4.846,7.592-11.434,7.575-18.3V202.4
			C503.049,190.707,495.209,180.472,483.923,177.413z M466.717,179.184H326.973c-23.589-0.966-47.058-3.88-70.167-8.713
			l-57.435-11.502l-10.456-8.161c-23.986-18.612-43.78-42.07-58.092-68.846c23.566,22.81,50.87,41.407,80.725,54.983l22.425,10.204
			c5.045,2.197,10.647,2.774,16.033,1.65l108.763-23.276l48.502,21.474c0.486,1.493,1.174,2.912,2.044,4.218l5.783,8.675
			c3.188,4.794,8.567,7.671,14.325,7.662h34.121L466.717,179.184z M294.098,312.4l44.324,33.114l-65.499-25.218
			c-13.465-5.215-26.55-11.363-39.158-18.401v-33.066c0.03-11.473-4.532-22.481-12.667-30.571l-8.35-8.6
			c13.143-8.745,21.034-23.492,21.017-39.279v-7.118l19.692,3.943c24.212,5.052,48.803,8.078,73.517,9.046h5.198l-16.49,4.388
			c-23.416,6.248-41.203,25.326-45.798,49.121S274.693,297.883,294.098,312.4z M200.656,241.946l8.375,8.379
			c4.923,4.898,7.683,11.56,7.667,18.504v22.865c-27.547-17.657-52.14-39.544-72.875-64.856
			c-9.107-11.127-10.245-26.773-2.846-39.101c7.4-12.328,21.743-18.682,35.846-15.878v0l16.215,3.247
			c0.46,0.135,0.931,0.229,1.408,0.282l22.252,4.456v10.536c0.011,10.079-5.026,19.494-13.417,25.079
			c-4.291,2.859-7.074,7.491-7.583,12.622C195.19,233.212,197.009,238.301,200.656,241.946z M458.881,150.472l-29.583-0.047
			l-5.667-8.896l32.81,0L458.881,150.472z M448.186,115.526c1.273,2.917,2.394,5.899,3.383,8.937h-27.938
			c-4.786,0.005-9.353,2.011-12.594,5.533l-60.281-26.688c-4.55-2.02-8.444-5.273-11.242-9.392l-11.883-18.342l84.9,39.167
			c1.121,0.516,2.341,0.783,3.575,0.783H448.186z M414.815,74.188c9.309,6.656,17.402,14.866,23.923,24.271h-20.756L334.79,60.079
			c-1.195-0.482-2.441-0.829-3.714-1.033L277.25,19.89C326.834,26.549,374.05,45.186,414.815,74.188z M133.148,34.921
			c27.755-9.908,56.792-15.767,86.217-17.396c8.399-0.466,16.789-0.578,25.169-0.336l68.448,49.792
			c-3.487,5.589-3.383,12.701,0.267,18.185l12.067,18.217c2.553,3.755,5.684,7.082,9.275,9.86l-88.158,18.869
			c-1.852,0.388-3.778,0.196-5.517-0.55l-22.309-10.154c-39.953-18.228-74.856-45.928-101.682-80.697L133.148,34.921z
			 M61.731,106.071l1.675-3.358c3.916-7.804,4.901-16.755,2.775-25.225c-2.462-9.733,2.9-19.739,12.367-23.08l19.523-6.968
			l2.027,6.085c12.904,38.849,35.82,73.612,66.438,100.784c-19.05,1.339-35.762,13.194-43.324,30.73s-4.709,37.826,7.394,52.599
			c36.081,44.11,83.011,78.083,136.183,98.583l6.74,2.595l58.002,52.538l-36.267,17.988l-72.792-50.667
			C153.647,310.761,92.252,252.973,40.263,187.171C41.832,158.959,49.137,131.364,61.731,106.071z M37.256,340.492
			c-7.098-2.983-11.713-9.934-11.708-17.633c-0.001-3.472,0.944-6.879,2.733-9.854l1.667-2.776
			c18.57,14.397,39.706,25.135,62.283,31.643c16.747,4.791,32.652,12.145,47.15,21.8l81.407,54.256
			C129.794,379.535,37.256,340.492,37.256,340.492z M389.765,479.704l-7.771,6.238c-15.629-6.594-43.681-18.43-77.335-32.629
			L148.84,349.467c-15.957-10.631-33.465-18.727-51.9-24c-21.162-6.076-40.929-16.237-58.185-29.909l5.902-9.833
			c4.835-8.089,6.176-17.795,3.716-26.892l-1.308-4.758c-3.524-13.014-5.776-26.339-6.725-39.787
			c50.074,60.313,108.058,113.592,172.383,158.396l72.775,50.654c2.885,2.026,6.325,3.114,9.85,3.117
			c2.675,0.003,5.313-0.634,7.692-1.858l36.158-17.992c5.061-2.574,8.532-7.472,9.283-13.1c0.751-5.628-1.315-11.265-5.524-15.075
			l-24.938-22.484l75.563,29.093c1.748,0.673,3.539,1.18,5.308,1.77v17.938c-0.025,7.046,4.272,13.387,10.825,15.975l13.567,5.429
			C418.494,447.28,406.677,466.161,389.765,479.704z M437.015,485.263c-10.54,7.818-23.944,10.703-36.768,7.913l0.176-0.142
			c19.198-15.386,32.839-36.628,38.841-60.488l6.801,2.721c2.037,0.821,4.213,1.241,6.409,1.237h21.023
			C466.654,456.13,453.912,473.16,437.015,485.263z M477.032,419.436l-24.617-0.006l-36.459-14.683v-13.514
			c6.975,1.249,14.047,1.882,21.133,1.893h40.219l-0.002,1.975c-0.008,7.029-0.006,14.058,0.008,21.088
			C477.319,417.232,477.099,418.362,477.032,419.436z M485.998,368.729c-0.006,2.334-0.931,4.572-2.575,6.229l-1.102,1.1l-45.231,0
			c-12.78,0.01-25.452-2.345-37.375-6.946l-2.444-0.941l-92.932-69.43c-5.754-4.286-10.424-9.862-13.633-16.279
			c-6.226-12.418-6.534-26.979-0.838-39.649c5.696-12.67,16.792-22.104,30.213-25.689l78.452-20.875h84.928
			c1.621,1.637,2.532,3.846,2.536,6.15V368.729z"/>
	</g>
</g>
<g>
</g>
<g>
</g>
<g>
</g>
<g>
</g>
<g>
</g>
<g>
</g>
<g>
</g>
<g>
</g>
<g>
</g>
<g>
</g>
<g>
</g>
<g>
</g>
<g>
</g>
<g>
</g>
<g>
</g>
</svg>
