<?xml version="1.0" encoding="UTF-8"?>
<svg xmlns="http://www.w3.org/2000/svg" xmlns:xlink="http://www.w3.org/1999/xlink" width="512" height="512" viewBox="0 0 60 60" version="1.1"><!-- Generator: Sketch 51.3 (57544) - http://www.bohemiancoding.com/sketch --><title>043 - Browser</title><desc>Created with Sketch.</desc><defs/><g id="Page-1" stroke="none" stroke-width="1" fill="none" fill-rule="evenodd"><g id="043---Browser" fill="#000000" fill-rule="nonzero"><path d="M57,0 L3,0 C1.34314575,-1.01453063e-16 2.02906125e-16,1.34314575 0,3 L0,45 C2.02906125e-16,46.6568542 1.34314575,48 3,48 L22,48 L22,52 C19.2399468,52.0033061 17.0033061,54.2399468 17,57 L17,59 C17,59.5522847 17.4477153,60 18,60 L42,60 C42.5522847,60 43,59.5522847 43,59 L43,57 C42.9966939,54.2399468 40.7600532,52.0033061 38,52 L38,48 L57,48 C58.6568542,48 60,46.6568542 60,45 L60,3 C60,1.34314575 58.6568542,1.01453063e-16 57,0 Z M2,3 C2,2.44771525 2.44771525,2 3,2 L57,2 C57.5522847,2 58,2.44771525 58,3 L58,38 L2,38 L2,3 Z M41,57 L41,58 L19,58 L19,57 C19,55.3431458 20.3431458,54 22,54 L38,54 C39.6568542,54 41,55.3431458 41,57 Z M36,52 L24,52 L24,48 L36,48 L36,52 Z M58,45 C58,45.5522847 57.5522847,46 57,46 L3,46 C2.44771525,46 2,45.5522847 2,45 L2,40 L58,40 L58,45 Z" id="Shape"/><path d="M28,44 L32,44 C32.5522847,44 33,43.5522847 33,43 C33,42.4477153 32.5522847,42 32,42 L28,42 C27.4477153,42 27,42.4477153 27,43 C27,43.5522847 27.4477153,44 28,44 Z" id="Shape"/><path d="M53,50 C49.1358343,50.0044086 46.0044086,53.1358343 46,57 L46,58 C46,59.1045695 46.8954305,60 48,60 L58,60 C59.1045695,60 60,59.1045695 60,58 L60,57 C59.9955914,53.1358343 56.8641657,50.0044086 53,50 Z M58,58 L48,58 L48,57 C48.0029983,54.6248992 49.6735832,52.5784327 52,52.1 L52,54 C52,54.5522847 52.4477153,55 53,55 C53.5522847,55 54,54.5522847 54,54 L54,52.1 C56.3264168,52.5784327 57.9970017,54.6248992 58,57 L58,58 Z" id="Shape"/><path d="M7,6 C7.55228475,6 8,5.55228475 8,5 C8,4.44771525 7.55228475,4 7,4 L5,4 C4.44771525,4 4,4.44771525 4,5 C4,5.55228475 4.44771525,6 5,6 L7,6 Z" id="Shape"/><path d="M11,6 L17,6 C17.5522847,6 18,5.55228475 18,5 C18,4.44771525 17.5522847,4 17,4 L11,4 C10.4477153,4 10,4.44771525 10,5 C10,5.55228475 10.4477153,6 11,6 Z" id="Shape"/><path d="M46.728,18.686 C46.8076403,18.6008831 46.8716228,18.5023703 46.917,18.395 C46.9227205,18.3772898 46.9273953,18.3592587 46.931,18.341 C46.9669519,18.2447778 46.9878639,18.1435908 46.993,18.041 C46.993,18.028 47,18.018 47,18.005 C47,17.975 46.985,17.949 46.983,17.92 C46.9770615,17.838639 46.9609355,17.7583449 46.935,17.681 C46.9184609,17.6348628 46.8984018,17.5900643 46.875,17.547 C46.8623937,17.5129503 46.8480413,17.4795727 46.832,17.447 L40.832,8.447 C40.823,8.434 40.81,8.424 40.8,8.411 C40.79,8.398 40.77,8.376 40.755,8.358 C40.683148,8.27123039 40.5968869,8.1974856 40.5,8.14 C40.495,8.14 40.492,8.131 40.486,8.128 L40.48,8.128 C40.3772057,8.07429723 40.2658993,8.03877391 40.151,8.023 C40.1225509,8.01779686 40.0938429,8.01412491 40.065,8.012 C40.043,8.007 40.022,8 40,8 L20,8 C19.978,8 19.957,8.007 19.935,8.008 C19.9061571,8.01012491 19.8774491,8.01379686 19.849,8.019 C19.7341007,8.03477391 19.6227943,8.07029723 19.52,8.124 L19.514,8.124 C19.508,8.124 19.505,8.133 19.5,8.136 C19.4031131,8.1934856 19.316852,8.26723039 19.245,8.354 C19.23,8.372 19.214,8.388 19.2,8.407 C19.186,8.426 19.177,8.43 19.168,8.443 L13.168,17.443 C13.1519587,17.4755727 13.1376063,17.5089503 13.125,17.543 C13.1015982,17.5860643 13.0815391,17.6308628 13.065,17.677 C13.0390645,17.7543449 13.0229385,17.834639 13.017,17.916 C13.017,17.945 13,17.971 13,18.001 C13,18.014 13.007,18.024 13.007,18.037 C13.0121361,18.1395908 13.0330481,18.2407778 13.069,18.337 C13.0726047,18.3552587 13.0772795,18.3732898 13.083,18.391 C13.1283772,18.4983703 13.1923597,18.5968831 13.272,18.682 L29.272,35.682 C29.287,35.698 29.309,35.704 29.326,35.719 C29.390803,35.7796468 29.4638603,35.8308206 29.543,35.871 C29.5732524,35.8896238 29.6046479,35.9063235 29.637,35.921 C29.8686704,36.0209952 30.1313296,36.0209952 30.363,35.921 C30.3953521,35.9063235 30.4267476,35.8896238 30.457,35.871 C30.5361397,35.8308206 30.609197,35.7796468 30.674,35.719 C30.691,35.704 30.713,35.698 30.728,35.682 L46.728,18.686 Z M19.922,10.919 L23.3,17 L15.869,17 L19.922,10.919 Z M44.131,17 L36.7,17 L40.079,10.919 L44.131,17 Z M33.663,19 L30,31.456 L26.337,19 L33.663,19 Z M26.7,17 L30,11.06 L33.3,17 L26.7,17 Z M35,15.94 L31.7,10 L38.3,10 L35,15.94 Z M25,15.94 L21.7,10 L28.3,10 L25,15.94 Z M24.252,19 L27.859,31.267 L16.314,19 L24.252,19 Z M35.752,19 L43.69,19 L32.141,31.267 L35.752,19 Z" id="Shape"/><path d="M44,26 L44,27 C44,27.5522847 44.4477153,28 45,28 C45.5522847,28 46,27.5522847 46,27 L46,26 C46,25.4477153 45.5522847,25 45,25 C44.4477153,25 44,25.4477153 44,26 Z" id="Shape"/><path d="M48,28 L47,28 C46.4477153,28 46,28.4477153 46,29 C46,29.5522847 46.4477153,30 47,30 L48,30 C48.5522847,30 49,29.5522847 49,29 C49,28.4477153 48.5522847,28 48,28 Z" id="Shape"/><path d="M45,30 C44.4477153,30 44,30.4477153 44,31 L44,32 C44,32.5522847 44.4477153,33 45,33 C45.5522847,33 46,32.5522847 46,32 L46,31 C46,30.4477153 45.5522847,30 45,30 Z" id="Shape"/><path d="M43,28 L42,28 C41.4477153,28 41,28.4477153 41,29 C41,29.5522847 41.4477153,30 42,30 L43,30 C43.5522847,30 44,29.5522847 44,29 C44,28.4477153 43.5522847,28 43,28 Z" id="Shape"/><path d="M8,11 C8,11.5522847 8.44771525,12 9,12 C9.55228475,12 10,11.5522847 10,11 L10,10 C10,9.44771525 9.55228475,9 9,9 C8.44771525,9 8,9.44771525 8,10 L8,11 Z" id="Shape"/><path d="M12,12 L11,12 C10.4477153,12 10,12.4477153 10,13 C10,13.5522847 10.4477153,14 11,14 L12,14 C12.5522847,14 13,13.5522847 13,13 C13,12.4477153 12.5522847,12 12,12 Z" id="Shape"/><path d="M10,15 C10,14.4477153 9.55228475,14 9,14 C8.44771525,14 8,14.4477153 8,15 L8,16 C8,16.5522847 8.44771525,17 9,17 C9.55228475,17 10,16.5522847 10,16 L10,15 Z" id="Shape"/><path d="M7,12 L6,12 C5.44771525,12 5,12.4477153 5,13 C5,13.5522847 5.44771525,14 6,14 L7,14 C7.55228475,14 8,13.5522847 8,13 C8,12.4477153 7.55228475,12 7,12 Z" id="Shape"/><path d="M50,7 C50.5522847,7 51,6.55228475 51,6 L51,5 C51,4.44771525 50.5522847,4 50,4 C49.4477153,4 49,4.44771525 49,5 L49,6 C49,6.55228475 49.4477153,7 50,7 Z" id="Shape"/><path d="M53,7 L52,7 C51.4477153,7 51,7.44771525 51,8 C51,8.55228475 51.4477153,9 52,9 L53,9 C53.5522847,9 54,8.55228475 54,8 C54,7.44771525 53.5522847,7 53,7 Z" id="Shape"/><path d="M50,9 C49.4477153,9 49,9.44771525 49,10 L49,11 C49,11.5522847 49.4477153,12 50,12 C50.5522847,12 51,11.5522847 51,11 L51,10 C51,9.44771525 50.5522847,9 50,9 Z" id="Shape"/><path d="M47,9 L48,9 C48.5522847,9 49,8.55228475 49,8 C49,7.44771525 48.5522847,7 48,7 L47,7 C46.4477153,7 46,7.44771525 46,8 C46,8.55228475 46.4477153,9 47,9 Z" id="Shape"/><path d="M14,31 C14.5522847,31 15,30.5522847 15,30 L15,29 C15,28.4477153 14.5522847,28 14,28 C13.4477153,28 13,28.4477153 13,29 L13,30 C13,30.5522847 13.4477153,31 14,31 Z" id="Shape"/><path d="M17,31 L16,31 C15.4477153,31 15,31.4477153 15,32 C15,32.5522847 15.4477153,33 16,33 L17,33 C17.5522847,33 18,32.5522847 18,32 C18,31.4477153 17.5522847,31 17,31 Z" id="Shape"/><path d="M14,33 C13.4477153,33 13,33.4477153 13,34 L13,35 C13,35.5522847 13.4477153,36 14,36 C14.5522847,36 15,35.5522847 15,35 L15,34 C15,33.4477153 14.5522847,33 14,33 Z" id="Shape"/><path d="M12,31 L11,31 C10.4477153,31 10,31.4477153 10,32 C10,32.5522847 10.4477153,33 11,33 L12,33 C12.5522847,33 13,32.5522847 13,32 C13,31.4477153 12.5522847,31 12,31 Z" id="Shape"/></g></g></svg>
