<svg id="Capa_1" enable-background="new 0 0 494.917 494.917" height="512" viewBox="0 0 494.917 494.917" width="512" xmlns="http://www.w3.org/2000/svg"><g><path d="m120.23 94.771-26.577 25.905c-1.179 1.149-1.716 2.804-1.438 4.426l6.275 36.569c.15.87-.27 1.63-.92 2.04-.56.35-1.3.43-1.98.07l-32.844-17.267c-1.456-.766-3.196-.766-4.653 0l-32.853 17.267c-1.46.77-3.18-.47-2.9-2.11l6.275-36.57c.278-1.622-.259-3.277-1.437-4.426l-26.568-25.904c-1.19-1.15-.54-3.17 1.1-3.41l36.728-5.332c1.629-.237 3.038-1.26 3.766-2.736l16.416-33.282c.74-1.48 2.86-1.48 3.59 0l16.426 33.283c.728 1.476 2.136 2.499 3.765 2.735l36.718 5.332c1.641.24 2.291 2.26 1.111 3.41z" fill="#fad207"/><path d="m62.21 191.015 16.422 33.275c.728 1.476 2.136 2.499 3.765 2.735l36.721 5.336c1.64.238 2.295 2.254 1.108 3.411l-26.572 25.901c-1.178 1.149-1.716 2.804-1.438 4.426l6.273 36.573c.28 1.634-1.435 2.88-2.902 2.108l-32.845-17.267c-1.457-.766-3.197-.766-4.653 0l-32.845 17.267c-1.467.771-3.182-.475-2.902-2.108l6.273-36.573c.278-1.622-.26-3.277-1.438-4.426l-26.571-25.9c-1.187-1.157-.532-3.173 1.108-3.411l36.721-5.336c1.629-.237 3.036-1.259 3.765-2.735l16.422-33.275c.735-1.487 2.854-1.487 3.588-.001z" fill="#fad207"/><path d="m62.21 332.015 16.422 33.275c.728 1.476 2.136 2.499 3.765 2.735l36.721 5.336c1.64.238 2.295 2.254 1.108 3.411l-26.572 25.901c-1.178 1.149-1.716 2.804-1.438 4.426l6.273 36.573c.28 1.634-1.435 2.88-2.902 2.108l-32.845-17.267c-1.457-.766-3.197-.766-4.653 0l-32.845 17.267c-1.467.771-3.182-.475-2.902-2.108l6.273-36.573c.278-1.622-.26-3.277-1.438-4.426l-26.571-25.9c-1.187-1.157-.532-3.173 1.108-3.411l36.721-5.336c1.629-.237 3.036-1.259 3.765-2.735l16.422-33.275c.735-1.487 2.854-1.487 3.588-.001z" fill="#fad207"/><g fill="#faa515"><path d="m46.851 123.725-21.611 40.056c-1.46.77-3.18-.47-2.9-2.11l6.275-36.57c.278-1.622-.259-3.277-1.437-4.426l-26.568-25.904c-1.19-1.15-.54-3.17 1.1-3.41l43.292 25.69c2.307 1.369 3.123 4.314 1.849 6.674z"/><path d="m62.21 50.011-2.93 29.04c-.23 2.27-1.96 4.1-4.22 4.44l-16.62 2.54c1.63-.24 3.04-1.26 3.76-2.74l16.42-33.28c.74-1.48 2.86-1.48 3.59 0z"/><path d="m46.851 264.725-21.611 40.056c-1.46.77-3.18-.47-2.9-2.11l6.275-36.57c.278-1.622-.259-3.277-1.437-4.426l-26.568-25.904c-1.19-1.15-.54-3.17 1.1-3.41l43.292 25.69c2.307 1.369 3.123 4.314 1.849 6.674z"/><path d="m62.21 191.011-3.84 29.21c-.28 2.19-1.97 3.93-4.15 4.28l-15.78 2.52c1.62-.23 3.03-1.25 3.76-2.73l16.42-33.28c.74-1.48 2.86-1.48 3.59 0z"/><path d="m46.851 405.725-21.611 40.056c-1.46.77-3.18-.47-2.9-2.11l6.275-36.57c.278-1.622-.259-3.277-1.437-4.426l-26.568-25.904c-1.19-1.15-.54-3.17 1.1-3.41l43.292 25.69c2.307 1.369 3.123 4.314 1.849 6.674z"/><path d="m62.21 332.011-3.84 29.21c-.28 2.19-1.97 3.93-4.15 4.28l-15.78 2.52c1.62-.23 3.03-1.25 3.76-2.73l16.42-33.28c.74-1.48 2.86-1.48 3.59 0z"/></g><path d="m484.917 72.821c5.523 0 10 4.477 10 10v46c0 5.523-4.477 10-10 10h-300c-5.523 0-10-4.477-10-10v-46c0-5.523 4.477-10 10-10z" fill="#93ddb7"/><path d="m204.92 138.821h-20c-5.53 0-10-4.48-10-10v-46c0-5.52 4.47-10 10-10h10v56c0 5.52 4.47 10 10 10z" fill="#5ed297"/><path d="m434.81 113.321h-210c-4.142 0-7.5-3.357-7.5-7.5s3.358-7.5 7.5-7.5h210c4.142 0 7.5 3.357 7.5 7.5s-3.358 7.5-7.5 7.5z" fill="#2b597f"/><path d="m184.917 279.821c-5.523 0-10-4.477-10-10v-46c0-5.523 4.477-10 10-10h220c5.523 0 10 4.477 10 10v46c0 5.523-4.477 10-10 10z" fill="#93ddb7"/><path d="m364.81 254.321h-140c-4.142 0-7.5-3.357-7.5-7.5s3.358-7.5 7.5-7.5h140c4.142 0 7.5 3.357 7.5 7.5s-3.358 7.5-7.5 7.5z" fill="#2b597f"/><path d="m304.917 354.821c5.523 0 10 4.477 10 10v46c0 5.523-4.477 10-10 10h-120c-5.523 0-10-4.477-10-10v-46c0-5.523 4.477-10 10-10z" fill="#93ddb7"/><path d="m269.917 395.321h-50c-4.142 0-7.5-3.357-7.5-7.5s3.358-7.5 7.5-7.5h50c4.142 0 7.5 3.357 7.5 7.5s-3.358 7.5-7.5 7.5z" fill="#2b597f"/><path d="m204.917 279.821h-20c-5.53 0-10-4.48-10-10v-46c0-5.52 4.47-10 10-10h10v56c0 5.52 4.47 10 10 10z" fill="#5ed297"/><path d="m204.917 420.821h-20c-5.53 0-10-4.48-10-10v-46c0-5.52 4.47-10 10-10h10v56c0 5.52 4.47 10 10 10z" fill="#5ed297"/></g></svg>