<?xml version="1.0" encoding="iso-8859-1"?>
<!-- Generator: Adobe Illustrator 19.0.0, SVG Export Plug-In . SVG Version: 6.00 Build 0)  -->
<svg version="1.1" id="Capa_1" xmlns="http://www.w3.org/2000/svg" xmlns:xlink="http://www.w3.org/1999/xlink" x="0px" y="0px"
	 viewBox="0 0 512 512" style="enable-background:new 0 0 512 512;" xml:space="preserve">
<g>
	<g>
		<g>
			<circle cx="98" cy="31.5" r="7"/>
			<circle cx="127.5" cy="32" r="7"/>
			<circle cx="157" cy="32.5" r="7"/>
			<path d="M431.019,0H80.981C70.791,0,62.5,8.291,62.5,18.481v190.037c0,10.19,8.291,18.481,18.481,18.481H254.5v25.5
				c0,4.143,3.358,7.5,7.5,7.5c4.142,0,7.5-3.357,7.5-7.5V152c0-11.579-9.42-21-21-21c-11.58,0-21,9.421-21,21v24
				c0,3.309-2.691,6-6,6s-6-2.691-6-6V63h186v35.5c0,4.143,3.358,7.5,7.5,7.5c4.142,0,7.5-3.357,7.5-7.5V63h18v145.519
				c0,1.92-1.562,3.481-3.481,3.481H416.5v-83.5c0-4.143-3.358-7.5-7.5-7.5c-4.142,0-7.5,3.357-7.5,7.5V240c0,3.309-2.691,6-6,6
				c-3.309,0-6-2.691-6-6v-36c0-11.579-9.42-21-21-21c-11.58,0-21,9.421-21,21v109h-41.431c-2.943,0-5.615,1.722-6.831,4.402
				L296.247,324l-4.097-7.207c-1.333-2.345-3.823-3.793-6.52-3.793H269.5v-30.5c0-4.143-3.358-7.5-7.5-7.5
				c-4.142,0-7.5,3.357-7.5,7.5V313H254c-4.142,0-7.5,3.357-7.5,7.5v88.93c0,19.087,15.113,34.711,34,35.536V484.5
				c0,15.163,12.336,27.5,27.5,27.5s27.5-12.337,27.5-27.5v-39.534c18.887-0.825,34-16.449,34-35.536V320.5
				c0-3.975-3.091-7.226-7-7.483V227h12v13c0,11.579,9.42,21,21,21c11.58,0,21-9.421,21-21v-13h14.519
				c10.191,0,18.481-8.291,18.481-18.481V18.481C449.5,8.291,441.209,0,431.019,0z M221.5,197c11.58,0,21-9.421,21-21v-24
				c0-3.309,2.691-6,6-6s6,2.691,6,6v60H80.981c-1.919,0-3.481-1.562-3.481-3.481V63h123v113C200.5,187.579,209.92,197,221.5,197z
				 M434.499,48H77.5V18.481c0-1.92,1.562-3.481,3.481-3.481h350.037c1.919,0,3.481,1.562,3.481,3.481V48z M354.5,409.43
				c0,11.343-9.228,20.57-20.571,20.57H328c-4.142,0-7.5,3.357-7.5,7.5v47c0,6.893-5.607,12.5-12.5,12.5s-12.5-5.607-12.5-12.5v-47
				c0-4.143-3.358-7.5-7.5-7.5h-5.929c-11.343,0-20.571-9.228-20.571-20.57V400h93V409.43z M354.5,385h-93v-57h19.767l9.213,16.207
				c1.394,2.451,4.053,3.909,6.862,3.785c2.817-0.129,5.324-1.826,6.489-4.395L310.903,328H354.5V385z M374.5,212h-12v-8
				c0-3.309,2.691-6,6-6c3.309,0,6,2.691,6,6V212z"/>
			<circle cx="308" cy="480.5" r="6.5"/>
			<path d="M179,80.5H98.5c-4.142,0-7.5,3.357-7.5,7.5s3.358,7.5,7.5,7.5H179c4.142,0,7.5-3.357,7.5-7.5S183.142,80.5,179,80.5z"/>
			<path d="M98.5,128.5H114c4.142,0,7.5-3.357,7.5-7.5s-3.358-7.5-7.5-7.5H98.5c-4.142,0-7.5,3.357-7.5,7.5S94.358,128.5,98.5,128.5
				z"/>
			<path d="M179,113.5h-40c-4.142,0-7.5,3.357-7.5,7.5s3.358,7.5,7.5,7.5h40c4.142,0,7.5-3.357,7.5-7.5S183.142,113.5,179,113.5z"/>
			<path d="M98.5,161.5H139c4.142,0,7.5-3.357,7.5-7.5s-3.358-7.5-7.5-7.5H98.5c-4.142,0-7.5,3.357-7.5,7.5S94.358,161.5,98.5,161.5
				z"/>
			<path d="M179,179.5H98.5c-4.142,0-7.5,3.357-7.5,7.5s3.358,7.5,7.5,7.5H179c4.142,0,7.5-3.357,7.5-7.5S183.142,179.5,179,179.5z"
				/>
			<path d="M179,147h-16c-4.142,0-7.5,3.357-7.5,7.5s3.358,7.5,7.5,7.5h16c4.142,0,7.5-3.357,7.5-7.5S183.142,147,179,147z"/>
		</g>
	</g>
</g>
<g>
</g>
<g>
</g>
<g>
</g>
<g>
</g>
<g>
</g>
<g>
</g>
<g>
</g>
<g>
</g>
<g>
</g>
<g>
</g>
<g>
</g>
<g>
</g>
<g>
</g>
<g>
</g>
<g>
</g>
</svg>
