<?xml version="1.0" encoding="UTF-8" standalone="no" ?>
<!DOCTYPE svg PUBLIC "-//W3C//DTD SVG 1.1//EN" "http://www.w3.org/Graphics/SVG/1.1/DTD/svg11.dtd">
<svg xmlns="http://www.w3.org/2000/svg" xmlns:xlink="http://www.w3.org/1999/xlink" version="1.1" width="1080" height="1080" viewBox="0 0 1080 1080" xml:space="preserve">
<desc>Created with Fabric.js 5.2.4</desc>
<defs>
</defs>
<g transform="matrix(1 0 0 1 540 540)" id="1aa675ca-904a-4a46-8fcf-38939d5fa036"  >
<rect style="stroke: none; stroke-width: 1; stroke-dasharray: none; stroke-linecap: butt; stroke-dashoffset: 0; stroke-linejoin: miter; stroke-miterlimit: 4; fill: rgb(255,255,255); fill-rule: nonzero; opacity: 1; visibility: hidden;" vector-effect="non-scaling-stroke"  x="-540" y="-540" rx="0" ry="0" width="1080" height="1080" />
</g>
<g transform="matrix(1 0 0 1 540 540)" id="2d72e35b-6262-43d9-84be-66911a4ad4ff"  >
</g>
<g transform="matrix(13.73 0 0 13.73 530.47 497.05)" id="37b00a47-0a8d-4d0d-966c-d9711d9bc497"  >
<path style="stroke: rgb(0,0,0); stroke-width: 0; stroke-dasharray: none; stroke-linecap: butt; stroke-dashoffset: 0; stroke-linejoin: miter; stroke-miterlimit: 4; fill: rgb(0,0,0); fill-rule: nonzero; opacity: 1;" vector-effect="non-scaling-stroke"  transform=" translate(-32.76, -30)" d="M 30.8644076 17.3596564 C 30.8644076 17.3596564 35.4806753 21.6966984 39.9942251 26.0467041 L 40.5045007 26.5389807 C 41.8627128 27.8506265 43.1953347 29.1485829 44.3725346 30.3138831 C 49.5963591 35.4850861 57.4585899 44.3496913 61.416016 49.652723 C 61.5131915 49.7829015 61.609817 49.9136301 61.7055257 50.0449087 C 62.5903727 51.2575855 63.4532177 52.4882306 64.1756167 53.806517 C 64.8923318 55.1141691 65.8358508 56.9153994 65.4101122 58.4579228 C 64.9066331 60.2813385 62.6831478 60.1449261 61.2735531 59.7620913 C 59.0643691 59.1621701 57.0189166 57.9465597 55.1236278 56.6970296 C 54.3233458 56.1693687 53.5103607 55.6197216 52.6973753 55.0594886 L 52.0878346 54.637507 C 51.5802149 54.2844986 51.0738356 53.9284682 50.571798 53.5721993 L 49.9716354 53.1447401 C 44.4928874 49.2285801 39.6895925 45.4182551 39.6895925 45.4182551 L 40.3227 44.2706675 C 40.3227 44.2706675 44.9099911 48.0911724 50.1229173 51.8376636 L 50.7388502 52.2778509 C 50.8419072 52.3510803 50.9451449 52.4242224 51.0485336 52.4972481 L 51.6704379 52.9337687 C 55.098246 55.3243571 58.6253818 57.5240966 61.1785778 58.477908 C 61.1785778 58.477908 61.2094718 58.4892654 61.2647369 58.5082324 L 61.405829 58.5552022 C 62.0564278 58.765633 63.8839003 59.2764823 63.9488128 58.3988841 C 64.0280199 57.3303204 63.5531435 55.5098384 61.6534543 52.8978345 C 61.6534543 52.8978345 59.7550181 50.300896 57.5244286 47.5287593 L 57.1600473 47.0780705 C 57.0377813 46.9275839 56.9147921 46.776968 56.7913272 46.6266051 L 56.4197526 46.1766581 C 55.6747385 45.2798124 54.9215028 44.4058464 54.2134785 43.6373766 C 52.5740111 41.8579071 49.8859809 39.1003467 47.106829 36.3246502 L 46.1783835 35.4000632 C 43.3908026 32.6321878 40.6184822 29.952838 38.8188634 28.3219688 C 38.0856854 27.6575406 37.2626052 26.948892 36.4116271 26.2378352 L 35.9450631 25.8499985 L 35.9450631 25.8499985 L 35.4752018 25.4631921 C 35.3182802 25.3345958 35.1611817 25.2064226 35.0042791 25.0789238 L 34.5345311 24.6987014 C 32.3485932 22.9361169 30.2740746 21.3549593 29.3336035 20.6448337 L 29.1498045 20.5062474 C 28.9288769 20.3399119 28.8064873 20.2487022 28.8064873 20.2487022 C 28.8064873 20.2487022 29.8354475 18.4282201 30.8644076 17.3596564 Z M 15.628097 45.259969 L 17.9234554 45.4182001 C 17.9234554 45.4182001 16.4592224 52.3438792 18.5171427 55.6285942 C 20.5748796 58.9133092 26.1945567 54.7974687 28.3711044 52.6999448 C 28.3711044 52.6999448 28.9251881 54.3621958 30.3103973 54.8370723 C 30.3103973 54.8370723 22.197527 60.8128151 17.9234554 56.4201161 C 14.3387503 52.7357631 15.1524659 47.3811891 15.5082094 45.749754 L 15.546948 45.5783412 C 15.5951527 45.3726394 15.628097 45.259969 15.628097 45.259969 Z M 31.9625457 48.408785 C 33.621313 48.408785 34.9660018 49.7534739 34.9660018 51.4122412 C 34.9660018 53.0710085 33.621313 54.4156973 31.9625457 54.4156973 C 30.3037783 54.4156973 28.9589062 53.0710085 28.9589062 51.4122412 C 28.9589062 49.7534739 30.3037783 48.408785 31.9625457 48.408785 Z M 40.4217274 42.0346411 C 38.4824346 45.6161997 36.127854 48.9997404 36.127854 48.9997404 L 36.127854 48.9997404 L 33.5752555 47.0408291 L 37.8097235 42.7667576 Z M 14.8497763 24.5887431 L 15.6148958 25.3274602 C 15.6148958 25.3274602 15.607598 25.3305667 15.5933801 25.3367153 L 15.5303438 25.3642224 C 14.3816052 25.8691938 1.96510877 31.5020534 5.272673 37.648396 C 8.62339403 43.8747782 31.0689162 43.3274785 46.476549 37.0481081 L 47.9211636 38.6113501 C 47.9211636 38.6113501 32.6847796 44.8641347 19.1898538 44.4288619 C 5.69474467 43.993589 2.2914022 40.0361629 1.73731854 37.4637625 C 1.18323488 34.8913622 3.0433205 32.5167965 6.56547376 29.7861652 C 10.087627 27.0555338 14.8497763 24.5887431 14.8497763 24.5887431 Z M 29.5188387 13.9958259 C 31.9410754 11.2609775 38.8981073 4.26049158 44.5572047 5.4082625 C 50.2164854 6.55585007 48.950087 16.9640788 48.950087 16.9640788 L 48.950087 16.9640788 L 47.8023161 16.9244752 C 47.8023161 16.9244752 49.2271289 7.14953733 44.4385772 6.23920464 C 39.6500256 5.32905531 32.7243465 12.0567164 26.8278109 21.1589432 C 21.0749144 30.0391644 18.599238 40.6896675 18.4818956 41.2039215 L 18.4775024 41.223299 L 16.1821439 41.0254644 C 19.466859 27.0160585 27.0652492 16.7660608 29.5188387 13.9958259 Z M 23.503474 29.509215 L 34.6240174 39.6800055 L 32.7243282 39.9964676 C 29.7958622 37.1076052 22.9097867 30.8944242 22.9097867 30.8944242 L 22.9097867 30.8944242 L 23.503474 29.509215 Z M 42.6180769 33.2688065 L 44.0823099 34.5352049 L 42.4598458 37.4636709 L 39.8478419 38.2947964 C 41.1934475 36.9097706 42.6180769 33.2688065 42.6180769 33.2688065 L 42.6180769 33.2688065 Z M 57.1156704 19.839795 C 59.6337991 21.336481 61.5125865 23.7198475 61.0795138 26.7907764 C 60.6750437 29.6602037 58.593838 31.7307751 56.4079395 33.4476644 C 54.9596579 34.5851677 53.4026498 35.6150446 51.7801858 36.4888907 C 51.764601 36.4973248 51.7490163 36.5055755 51.7334315 36.5140096 L 51.7334315 36.5140096 L 50.2823997 34.9045634 C 54.5036665 32.9522527 56.7640051 30.6596445 57.8543875 29.2058624 C 59.0415787 27.6228187 59.3054193 26.1453845 58.8041404 24.7469741 C 58.3028616 23.3487471 56.0867103 21.9241177 56.0867103 21.9241177 C 57.2210967 21.0269862 57.1156704 19.839795 57.1156704 19.839795 Z M 34.7011711 26.2646536 C 35.1256947 26.5153053 35.4410063 27.0402872 35.6062592 27.5622409 C 35.7747251 27.7250486 35.8879799 27.9447147 35.9158099 28.1902489 C 36.7098236 28.3082782 37.5734112 28.6382962 37.9015268 29.479604 C 38.0719044 29.9168956 38.3822701 31.3419218 36.0682452 32.7897366 C 36.1018229 32.8921601 36.120355 33.0024707 36.120355 33.1171027 C 36.120355 33.6922716 35.654096 34.1583473 35.0791104 34.1583473 C 34.8957753 34.1583473 34.7235243 34.1109933 34.5739183 34.0278463 C 34.3054902 34.4595844 34.0128291 34.8005126 33.6852288 35.0689367 C 33.3962692 35.3056415 33.0798071 35.4275693 32.7598614 35.4275693 C 32.6940388 35.4275693 32.6280328 35.4224355 32.5620268 35.4119845 C 32.1582901 35.3483621 31.7917735 35.0894719 31.5301331 34.6828016 C 31.3834246 34.4549816 31.2620824 34.1751268 31.1780369 33.8849599 C 31.0947891 33.8186673 31.0223903 33.7387197 30.9634523 33.6491251 C 29.9924842 33.4609623 29.3722675 33.1261474 29.0750584 32.6301068 C 28.8214854 32.2065683 28.8130513 31.6711864 29.0503061 31.0384456 C 29.3613786 30.2091481 30.3023218 29.4936611 31.3640823 28.9904785 C 31.1473923 28.8013505 31.0103908 28.5215711 31.0103908 28.209832 C 31.0103908 27.6346631 31.4764665 27.1685874 32.0516354 27.1685874 C 32.2038263 27.1685874 32.3484 27.2012402 32.4787264 27.2599259 C 32.6735121 26.9806328 32.9010147 26.7138657 33.1694653 26.4951246 C 33.3324634 26.3623792 33.4862941 26.2666705 33.639758 26.203048 C 34.007008 26.0503175 34.3742581 26.0715861 34.7011711 26.2646536 Z M 34.1501895 33.5881023 L 34.1070598 33.5979633 C 33.6920592 33.6875052 33.1765873 33.7655417 32.600193 33.7815009 C 32.4108542 33.9888459 32.137573 34.1187804 31.8339807 34.1187804 C 31.7743722 34.1187804 31.7159355 34.1137745 31.6590679 34.1041601 C 31.7140471 34.2389494 31.77893 34.3658692 31.8502621 34.4767162 C 32.0524972 34.7907947 32.3262387 34.9893628 32.6212488 35.0357503 C 32.8975573 35.0797543 33.1819331 34.9889961 33.4437569 34.7742932 C 33.7500235 34.5234627 34.0247519 34.198688 34.2791509 33.7827534 C 34.228999 33.7235729 34.1857527 33.658119 34.1501895 33.5881023 Z M 33.8885709 28.624086 L 33.7406514 28.6429872 C 33.474664 28.6818014 33.1862869 28.7440438 32.8886314 28.8270419 C 32.6991999 29.0850161 32.3947794 29.2510766 32.0516354 29.2510766 C 32.0014389 29.2510766 31.9520732 29.2475253 31.9037758 29.2406604 C 31.7809728 29.6193547 31.6896518 30.0076642 31.6218148 30.3800101 C 31.6523881 30.4751503 31.6681956 30.5773559 31.6681956 30.68326 C 31.6681956 30.8932362 31.6060152 31.0887126 31.4990666 31.252277 C 31.462889 31.5841647 31.4451622 31.8806997 31.4364687 32.1167484 C 31.5588229 32.064252 31.6931307 32.0362912 31.8339807 32.0362912 C 32.4089662 32.0362912 32.8752252 32.5025502 32.8752252 33.0775358 C 32.8752252 33.1856965 32.858737 33.2899993 32.828138 33.3880704 C 33.2886005 33.3601232 33.7027214 33.2930957 34.0431716 33.2192703 C 34.0395207 33.1852606 34.0378658 33.1513753 34.0378658 33.1171027 C 34.0378658 32.5559034 34.4818596 32.0982793 35.0379317 32.0766573 C 35.1198677 31.8086614 35.1838097 31.5357886 35.234009 31.2655698 C 35.1275635 31.1040658 35.0668076 30.9106412 35.0668076 30.7030434 C 35.0668076 30.4090682 35.1885627 30.1435919 35.3844086 29.9542788 C 35.4004538 29.6858113 35.4045798 29.4340877 35.4027937 29.2089864 C 35.2494567 29.2990945 35.071287 29.3500122 34.8812391 29.3500122 C 34.4159914 29.3500122 34.0221235 29.0450583 33.8885709 28.624086 Z M 29.5937011 30.8129226 L 29.5562692 30.8692466 C 29.4957025 30.9683747 29.4454797 31.0694793 29.4069219 31.1722911 C 29.2096373 31.6981388 29.2079871 32.1108597 29.4017881 32.434289 C 29.6152413 32.7907116 30.0853262 33.0552729 30.8029151 33.2239743 C 30.7962023 33.1759279 30.7927361 33.1271375 30.7927361 33.0775358 C 30.7927361 32.8165986 30.8887236 32.5780534 31.0473341 32.3953161 C 31.048682 32.2142853 31.0559719 31.9437341 31.0792586 31.6205974 C 30.943292 31.6872576 30.7894643 31.7245046 30.626951 31.7245046 C 30.0957041 31.7245046 29.6575251 31.3267371 29.5937011 30.8129226 Z M 35.887594 28.572906 L 35.8693929 28.6379219 C 35.8459166 28.7084387 35.8151036 28.775601 35.7778597 28.8385042 C 35.7877316 29.084489 35.7917997 29.3822582 35.7812279 29.7131613 C 35.8844369 29.6800918 35.9941037 29.6617989 36.1080522 29.6617989 C 36.6830378 29.6617989 37.1492968 30.1278745 37.1492968 30.7030434 C 37.1492968 31.278029 36.6830378 31.744288 36.1080522 31.744288 C 35.9059891 31.744288 35.7173903 31.6867427 35.5577338 31.587154 C 35.5197168 31.7686164 35.473529 31.9516395 35.420006 32.1336173 C 35.5992001 32.1949199 35.7566534 32.3049428 35.8765453 32.447585 C 36.8032187 31.8467406 38.0073767 30.799978 37.5465612 29.6180332 C 37.2874859 28.9532067 36.5714186 28.6780885 35.887594 28.572906 Z M 33.3773842 29.6420154 C 33.9523697 29.6420154 34.4186288 30.1080911 34.4186288 30.68326 C 34.4186288 31.2582455 33.9523697 31.7245046 33.3773842 31.7245046 C 32.8023986 31.7245046 32.3361396 31.2582455 32.3361396 30.68326 C 32.3361396 30.1080911 32.8023986 29.6420154 33.3773842 29.6420154 Z M 47.3671533 19.8925998 L 48.4751372 19.9716237 C 47.6440117 25.1956315 45.7445059 30.1424142 45.7445059 30.1424142 L 45.7445059 30.1424142 L 44.4781075 29.1134541 C 45.7676462 26.9516889 47.2388767 20.4648488 47.3592405 19.9280319 L 47.3671533 19.8925998 Z M 31.4656881 29.3627527 L 31.2745463 29.4577952 C 31.1405039 29.5268588 31.0095238 29.5993619 30.882917 29.6750374 C 31.0501627 29.7159432 31.201498 29.79881 31.3256146 29.9111916 C 31.3657015 29.7299015 31.4123375 29.5462184 31.4656881 29.3627527 Z M 33.7857046 26.5547133 C 33.6668938 26.6040344 33.5440493 26.6810414 33.4100205 26.790318 C 33.1732892 26.9832742 32.9688767 27.223075 32.7894671 27.4765356 C 32.977539 27.6646772 33.09288 27.9237611 33.09288 28.209832 C 33.09288 28.2694214 33.0878722 28.327843 33.0782544 28.3846989 C 33.3450092 28.320109 33.6037766 28.2731825 33.8441728 28.2453154 L 33.8399945 28.3087676 C 33.8399945 27.7337821 34.3060702 27.267523 34.8812391 27.267523 C 34.9519798 27.267523 35.0210747 27.2745806 35.087858 27.2880298 C 34.9429995 26.9932001 34.7448235 26.7326607 34.5077369 26.5926667 C 34.2816663 26.459188 34.0455115 26.4469035 33.7857046 26.5547133 Z M 2.44965158 0.0260052782 C 4.95439576 -0.337577747 12.9370875 3.23151311 12.9370875 3.23151311 C 10.8791673 4.41888763 10.5625218 6.3183935 10.5625218 6.3183935 C 7.20226661 3.67100303 3.69643149 2.595472 2.76648036 2.34299907 C 2.62218392 2.30376217 2.48173783 2.40203777 2.45863573 2.54981786 C 2.08313495 4.9608702 6.5654921 11.542218 9.05868523 14.8665366 C 9.8790777 15.9603519 11.4225918 17.6828763 13.1057487 19.4832188 L 13.5678153 19.9757367 C 13.6452573 20.0580067 13.7228782 20.1403339 13.8006233 20.2226667 L 14.2681449 20.7163165 C 16.6088165 23.1807609 18.962568 25.5570938 19.8498796 26.4484275 L 20.1944576 26.7938528 C 20.2105613 26.80995 20.2188323 26.8182056 20.2188323 26.8182056 L 20.2188323 26.8182056 L 19.5855414 28.0450003 C 19.5855414 28.0450003 14.3617169 23.8895562 7.71307967 16.1725386 C 1.06462577 8.45552096 0.233500277 4.69574611 0.233500277 4.69574611 C -0.320583386 2.55880201 -0.00393795698 0.382254304 2.44965158 0.0260052782 Z M 23.1341704 21.3435766 L 22.4480748 22.5835726 C 21.0271386 23.0490458 18.8328134 24.0150402 18.526588 24.1506645 L 18.4906486 24.1666164 L 17.7519315 23.4014969 C 20.0400894 22.3869547 22.1869753 21.6549564 22.8920195 21.4223138 L 23.0244334 21.3789234 C 23.0961818 21.3555939 23.1341704 21.3435766 23.1341704 21.3435766 L 23.1341704 21.3435766 Z M 54.3867809 17.5044296 C 55.5345518 17.5044296 56.465053 18.4349308 56.465053 19.5827017 C 56.465053 20.7304726 55.5345518 21.6609738 54.3867809 21.6609738 C 53.2390099 21.6609738 52.3085088 20.7304726 52.3085088 19.5827017 C 52.3085088 18.4349308 53.2390099 17.5044296 54.3867809 17.5044296 Z M 33.9248306 18.6789146 C 43.0270574 17.2278828 51.3113598 17.6499545 51.3113598 17.6499545 C 51.100324 18.1512333 50.7044714 19.5496437 50.7044714 19.5496437 C 42.050902 18.705317 34.7691573 19.4704365 34.7691573 19.4704365 L 34.7691573 19.4704365 Z M 20.6276661 8.89077549 L 27.8039846 14.3784406 L 25.4822237 17.5445282 L 17.9102359 12.1358869 L 20.6276661 8.89077549 Z M 14.857972 3.87266968 C 16.8132163 3.87266968 18.3982769 5.45773033 18.3982769 7.41297459 C 18.3982769 9.36821886 16.8132163 10.9532795 14.857972 10.9532795 C 12.9027277 10.9532795 11.3176671 9.36821886 11.3176671 7.41297459 C 11.3176671 5.45773033 12.9027277 3.87266968 14.857972 3.87266968 Z" stroke-linecap="round" />
</g>
</svg>