<?xml version="1.0" encoding="UTF-8"?>
<svg width="36px" height="61px" viewBox="0 0 36 61" version="1.1" xmlns="http://www.w3.org/2000/svg" xmlns:xlink="http://www.w3.org/1999/xlink">
    <title>Dr Fate Logo</title>
    <g id="Shop" stroke="none" stroke-width="1" fill="none" fill-rule="evenodd">
        <g id="Logos" transform="translate(-323.000000, -58.000000)">
            <g id="Characters" transform="translate(-288.000000, 0.000000)">
                <g id="Character-Selector" transform="translate(388.000000, 55.000000)">
                    <g id="Dr-Fate-Logo" transform="translate(223.769893, 3.403338)">
                        <path d="M17.4134668,8.38787365 C16.7470675,8.38787365 16.0945544,8.52646051 15.4743507,8.7997846 C13.6200639,9.61659468 12.6278205,11.0776687 12.5253927,13.142448 C12.4675107,14.3058627 12.7622827,16.0907185 13.2109027,17.2941419 C13.6553981,18.4864289 14.284401,19.7073132 15.1342079,21.0262256 C15.8171057,22.0862502 16.5541733,23.0793185 17.3779952,24.0484642 C18.7073567,22.3826721 19.769581,20.7890606 20.618838,19.1877499 C21.3427069,17.8227793 21.9838086,15.7710613 22.2140993,14.0821714 C22.3636851,12.9857128 22.2162991,12.0140924 21.7635545,11.1121779 C20.9202094,9.43167471 19.2533174,8.38787365 17.4134668,8.38787365 L17.4134668,8.38787365 Z M10.3904951,59.4499834 L10.4721623,58.8285423 C10.9088209,55.4988829 11.3541412,50.7953163 11.7847504,46.2466974 C12.2064229,41.7918447 12.6417067,37.194693 13.0731408,33.8393236 L0.549865377,36.9392422 L0.549865377,27.0821141 L0.999310274,26.998522 C1.06420412,26.9864232 1.13281012,26.9805112 1.20939036,26.9805112 C3.52150869,26.9842234 5.83087728,26.9849108 8.14065833,26.9849108 L10.8642752,26.9847733 C9.28111273,25.1854814 8.04098028,23.3725782 7.08723319,21.4663214 C6.26396123,19.8208774 5.57886367,17.4140305 5.25439443,15.0280817 C4.8442708,12.0113427 5.26690574,9.41036423 6.54663443,7.07611049 C8.44780422,3.60786425 11.3292561,1.49097742 15.1106976,0.784019431 C15.9418063,0.628659158 16.7676906,0.549879126 17.5655274,0.549879126 C20.5003242,0.549879126 23.1850323,1.59780479 25.5454085,3.66464637 C27.7049163,5.55564212 29.0411521,7.98833652 29.516857,10.894811 C29.8299149,12.8087671 29.6807415,15.3526884 29.1365681,17.3755342 C28.4528454,19.9172558 27.2083134,22.362049 25.3317538,24.8493257 C24.8145278,25.5349732 24.2515187,26.1933983 23.7070703,26.830238 C23.6630744,26.8816581 23.6190786,26.9332157 23.5750828,26.9847733 L26.3330713,26.9849108 C28.7529795,26.9849108 31.1733,26.9840859 33.5932081,26.9800988 C33.6416036,26.9800988 33.6824372,26.982711 33.7202461,26.9866981 L34.2113495,27.0397681 L34.2113495,36.9341552 L21.7084222,33.8391861 C22.1366941,37.1714577 22.5688157,41.7444117 22.9874635,46.1760291 C23.4208224,50.7623194 23.8690299,55.5049323 24.3088507,58.8279923 L24.3912054,59.4499834 L10.3904951,59.4499834 Z" id="Fill-1" fill="#29292A"></path>
                        <path d="M17.3658414,23.1728784 C16.7287268,22.386453 16.1448196,21.5794045 15.5965216,20.7283601 C14.7684376,19.443132 14.1566206,18.2568944 13.7261489,17.1021414 C13.3000768,15.9592122 13.0200158,14.2686724 13.0745981,13.1697391 C13.1672644,11.3041785 14.0247706,10.0392984 15.6960621,9.30291816 C16.24601,9.06066612 16.8238677,8.93775278 17.4135493,8.93775278 C19.0440073,8.93775278 20.5225421,9.86537734 21.2721211,11.3588983 C21.6734455,12.158385 21.8032332,13.0248279 21.6691834,14.0078597 C21.4503042,15.613295 20.8185516,17.6373781 20.1329041,18.9300306 C19.3904744,20.3300604 18.4805857,21.7259656 17.3658414,23.1728784 M17.5656099,0 C16.7339513,0 15.8739703,0.0818047456 15.0095897,0.243489419 C11.0583518,0.982069408 8.04862456,3.19203492 6.06427516,6.81165431 C4.72597702,9.25301039 4.28285652,11.9648033 4.70947858,15.1021184 C5.04164709,17.5448494 5.74668026,20.0159027 6.59538731,21.7123543 C7.40931016,23.3389627 8.42547634,24.8973774 9.67770763,26.4347567 L8.18501163,26.4348942 C5.97779585,26.4348942 3.60545823,26.4343442 1.21263505,26.4306321 C1.09865836,26.4306321 0.996780514,26.4395687 0.898202358,26.457992 L0,26.6254511 L0,27.5391895 L0,36.2364776 L0,37.6418694 L1.36414569,37.3042014 L8.84962363,35.4512895 L12.4279969,34.565461 C12.0281848,37.8397131 11.6269979,42.0776114 11.2373598,46.1943837 C10.8071631,50.7383279 10.3623927,55.436945 9.92683402,58.7569803 L9.76377448,60 L11.0173806,60 L23.7637974,60 L25.0187784,60 L24.854069,58.7557429 C24.4156231,55.442857 23.9679655,50.705606 23.5350191,46.1244028 C23.1482682,42.0311408 22.750106,37.8177152 22.3534561,34.565461 L26.1953919,35.5164583 L33.3970967,37.2991144 L34.7612424,37.6367823 L34.7612424,36.2315281 L34.7612424,27.5335525 L34.7612424,26.5468086 L33.7804104,26.4401187 C33.7189537,26.4333818 33.6584595,26.4300821 33.5954904,26.4300821 C31.0957024,26.4343442 28.6056759,26.4348942 26.2866832,26.4348942 L24.7647025,26.4347567 C25.1062201,26.0277953 25.4462254,25.6106598 25.7706947,25.1806006 C27.6905627,22.6357168 28.9652043,20.1294669 29.6676253,17.5183144 C30.2304969,15.4259003 30.3843448,12.7911 30.0594631,10.8060632 C29.5627227,7.77021345 28.1658551,5.2283544 25.9076317,3.25087934 C23.4442777,1.09370883 20.6374812,0 17.5656099,0 M17.3894891,24.8473322 C17.4194613,24.8473322 17.449296,24.8345459 17.4700565,24.8093858 C17.4821553,24.7946747 17.4935668,24.7807885 17.5048407,24.7669023 C18.8647243,23.1012477 20.0957826,21.3476014 21.104662,19.4453317 C21.8860004,17.9720214 22.5312267,15.8272247 22.7590426,14.1564831 C22.9153653,13.0103917 22.7769159,11.905134 22.2551529,10.8654575 C21.2996185,8.96181299 19.4047731,7.83785704 17.4135493,7.83785704 C16.6925677,7.83785704 15.9587997,7.98538055 15.2526667,8.29637607 C13.18665,9.2065398 12.0884041,10.8525338 11.9760773,13.1151568 C11.9113209,14.4175708 12.2445893,16.2768071 12.6955466,17.4862799 C13.2016361,18.8438263 13.8890709,20.1089813 14.6719217,21.3240912 C15.4579347,22.5441505 16.330702,23.6983536 17.311534,24.8121355 C17.3321571,24.8356458 17.3608918,24.8473322 17.3894891,24.8473322 M17.5656099,1.09989574 C20.3743312,1.09989574 22.928839,2.10437552 25.1830754,4.0784134 C27.2739772,5.90932735 28.5244211,8.23615678 28.9740035,10.9836963 C29.285549,12.8874784 29.1031038,15.3825919 28.6055384,17.2326165 C27.8822195,19.9217241 26.5569826,22.3120725 24.8927029,24.5181884 C24.1560477,25.4946208 23.3327757,26.4056095 22.5486876,27.3462953 C22.5438755,27.3520698 22.538926,27.3578442 22.5339765,27.3637561 C22.4769194,27.4312622 22.5247648,27.5346524 22.6130315,27.5346524 L22.6566148,27.5346524 C23.8666376,27.5346524 25.0766604,27.5347899 26.2866832,27.5347899 C28.7225398,27.5347899 31.1583964,27.5341025 33.5941156,27.5299779 L33.5954904,27.5299779 C33.6196881,27.5299779 33.6412736,27.5313528 33.6613467,27.5335525 L33.6613467,36.2315281 C29.5135024,35.2046379 25.37157,34.1793976 21.2061273,33.1483828 C21.1976031,33.146183 21.1892164,33.1452206 21.1808297,33.1452206 C21.119923,33.1452206 21.0691903,33.199253 21.077852,33.2634594 C21.974817,39.8936309 22.8690322,52.1411075 23.7637974,58.9001043 L11.0173806,58.9001043 C11.9114584,52.0846003 12.8058111,39.9005053 13.7037385,33.2635969 C13.7124002,33.1993905 13.6616675,33.1453581 13.6007608,33.1453581 C13.5925115,33.1453581 13.5839874,33.1463205 13.5754632,33.1483828 C9.41249527,34.1788476 5.26396352,35.2057378 1.09989574,36.2364776 L1.09989574,27.5391895 C1.13165523,27.5332776 1.16753933,27.5305278 1.20933537,27.5305278 C1.20988531,27.5305278 1.21043526,27.5305278 1.21098521,27.5305278 C3.53561485,27.5341025 5.8602445,27.5347899 8.18501163,27.5347899 C9.3964093,27.5347899 10.6079445,27.5346524 11.8193421,27.5346524 L11.8721371,27.5346524 C11.9626035,27.5346524 12.0094866,27.4267252 11.947755,27.3605939 L11.9463801,27.3590816 C10.2161066,25.5080945 8.7159863,23.4926731 7.57896908,21.220151 C6.68502881,19.4335079 6.06922469,16.9385319 5.79933777,14.954045 C5.4371971,12.2906474 5.72248256,9.72335331 7.02874623,7.34042919 C8.81868906,4.07552617 11.5424434,2.01060941 15.2116956,1.32468693 C16.0147569,1.17455116 16.7995325,1.09989574 17.5656099,1.09989574" id="Fill-3" fill="#C5953D"></path>
                    </g>
                </g>
            </g>
        </g>
    </g>
</svg>