<svg id="Layer_1" data-name="Layer 1" xmlns="http://www.w3.org/2000/svg" xmlns:xlink="http://www.w3.org/1999/xlink" viewBox="0 0 568.96 388.9"><defs><linearGradient id="linear-gradient" x1="203.22" y1="112.94" x2="206.17" y2="538.84" gradientUnits="userSpaceOnUse"><stop offset="0" stop-color="#010101" stop-opacity="0"/><stop offset="0.95" stop-color="#010101"/></linearGradient><linearGradient id="linear-gradient-2" x1="199.52" y1="165.93" x2="-107.2" y2="288.11" xlink:href="#linear-gradient"/><linearGradient id="linear-gradient-3" x1="178.33" y1="57.1" x2="273.38" y2="241.31" xlink:href="#linear-gradient"/><linearGradient id="linear-gradient-4" x1="276.97" y1="341.57" x2="288.06" y2="176.63" xlink:href="#linear-gradient"/><linearGradient id="linear-gradient-5" x1="277.45" y1="169.39" x2="273.6" y2="417.6" xlink:href="#linear-gradient"/><linearGradient id="linear-gradient-6" x1="287.71" y1="213.55" x2="443" y2="164.35" xlink:href="#linear-gradient"/><linearGradient id="linear-gradient-7" x1="360.17" y1="96.6" x2="370.3" y2="174.24" xlink:href="#linear-gradient"/><linearGradient id="linear-gradient-8" x1="340.5" y1="106.76" x2="343.93" y2="106.76" gradientUnits="userSpaceOnUse"><stop offset="0" stop-color="#fff" stop-opacity="0"/><stop offset="0.95" stop-color="#fff"/></linearGradient><linearGradient id="linear-gradient-9" x1="350.28" y1="108.27" x2="353.7" y2="108.27" xlink:href="#linear-gradient-8"/><linearGradient id="linear-gradient-10" x1="360.05" y1="110.22" x2="363.48" y2="110.22" xlink:href="#linear-gradient-8"/><linearGradient id="linear-gradient-11" x1="369.83" y1="112.16" x2="373.26" y2="112.16" xlink:href="#linear-gradient-8"/><linearGradient id="linear-gradient-12" x1="379.61" y1="113.52" x2="383.04" y2="113.52" xlink:href="#linear-gradient-8"/><linearGradient id="linear-gradient-13" x1="335.27" y1="120.21" x2="389.1" y2="120.21" xlink:href="#linear-gradient-8"/><linearGradient id="linear-gradient-14" x1="335.27" y1="110.64" x2="389.1" y2="110.64" xlink:href="#linear-gradient-8"/><linearGradient id="linear-gradient-15" x1="335.27" y1="101.07" x2="384.76" y2="101.07" xlink:href="#linear-gradient-8"/><linearGradient id="linear-gradient-16" x1="335.27" y1="91.51" x2="360.09" y2="91.51" xlink:href="#linear-gradient-8"/><linearGradient id="linear-gradient-17" x1="310.52" y1="258.08" x2="314.2" y2="258.08" xlink:href="#linear-gradient-8"/><linearGradient id="linear-gradient-18" x1="320.14" y1="256.79" x2="323.98" y2="256.79" xlink:href="#linear-gradient-8"/><linearGradient id="linear-gradient-19" x1="330.33" y1="255.74" x2="334.09" y2="255.74" xlink:href="#linear-gradient-8"/><linearGradient id="linear-gradient-20" x1="340.11" y1="254.69" x2="343.71" y2="254.69" xlink:href="#linear-gradient-8"/><linearGradient id="linear-gradient-21" x1="349.89" y1="253.56" x2="353.33" y2="253.56" xlink:href="#linear-gradient-8"/><linearGradient id="linear-gradient-22" x1="359.53" y1="252.36" x2="363.09" y2="252.36" xlink:href="#linear-gradient-8"/><linearGradient id="linear-gradient-23" x1="369.15" y1="251.34" x2="372.87" y2="251.34" xlink:href="#linear-gradient-8"/><linearGradient id="linear-gradient-24" x1="379.22" y1="250.21" x2="383.09" y2="250.21" xlink:href="#linear-gradient-8"/><linearGradient id="linear-gradient-25" x1="303.77" y1="244.62" x2="392.98" y2="244.62" xlink:href="#linear-gradient-8"/><linearGradient id="linear-gradient-26" x1="303.77" y1="235.05" x2="392.98" y2="235.05" xlink:href="#linear-gradient-8"/><linearGradient id="linear-gradient-27" x1="303.77" y1="225.48" x2="392.98" y2="225.48" xlink:href="#linear-gradient-8"/><linearGradient id="linear-gradient-28" x1="303.77" y1="215.91" x2="392.98" y2="215.91" xlink:href="#linear-gradient-8"/><linearGradient id="linear-gradient-29" x1="303.77" y1="206.34" x2="392.98" y2="206.34" xlink:href="#linear-gradient-8"/><linearGradient id="linear-gradient-30" x1="303.77" y1="196.77" x2="392.98" y2="196.77" xlink:href="#linear-gradient-8"/><linearGradient id="linear-gradient-31" x1="303.77" y1="187.2" x2="392.98" y2="187.2" xlink:href="#linear-gradient-8"/><linearGradient id="linear-gradient-32" x1="303.77" y1="177.63" x2="392.98" y2="177.63" xlink:href="#linear-gradient-8"/><linearGradient id="linear-gradient-33" x1="303.77" y1="168.06" x2="392.98" y2="168.06" xlink:href="#linear-gradient-8"/><linearGradient id="linear-gradient-34" x1="303.77" y1="158.49" x2="392.98" y2="158.49" xlink:href="#linear-gradient-8"/><linearGradient id="linear-gradient-35" x1="303.77" y1="148.92" x2="392.98" y2="148.92" xlink:href="#linear-gradient-8"/><linearGradient id="linear-gradient-36" x1="303.77" y1="139.35" x2="392.98" y2="139.35" xlink:href="#linear-gradient-8"/><linearGradient id="linear-gradient-37" x1="322.66" y1="129.78" x2="392.98" y2="129.78" xlink:href="#linear-gradient-8"/><linearGradient id="linear-gradient-38" x1="124.26" y1="176.96" x2="-3.71" y2="180.18" xlink:href="#linear-gradient"/><linearGradient id="linear-gradient-39" x1="95.81" y1="139.16" x2="259.3" y2="213.43" xlink:href="#linear-gradient-8"/><linearGradient id="linear-gradient-40" x1="144.66" y1="114.83" x2="144.34" y2="193.6" xlink:href="#linear-gradient"/><linearGradient id="linear-gradient-41" x1="144.66" y1="124.6" x2="144.34" y2="203.37" xlink:href="#linear-gradient"/><linearGradient id="linear-gradient-42" x1="144.66" y1="134.36" x2="144.34" y2="213.13" xlink:href="#linear-gradient"/><linearGradient id="linear-gradient-43" x1="144.66" y1="144.13" x2="144.34" y2="222.9" xlink:href="#linear-gradient"/><linearGradient id="linear-gradient-44" x1="144.66" y1="153.89" x2="144.34" y2="232.67" xlink:href="#linear-gradient"/><linearGradient id="linear-gradient-45" x1="144.66" y1="163.66" x2="144.34" y2="242.43" xlink:href="#linear-gradient"/><linearGradient id="linear-gradient-46" x1="144.66" y1="173.43" x2="144.34" y2="252.2" xlink:href="#linear-gradient"/><linearGradient id="linear-gradient-47" x1="144.66" y1="183.19" x2="144.34" y2="261.96" xlink:href="#linear-gradient"/><linearGradient id="linear-gradient-48" x1="144.66" y1="192.96" x2="144.34" y2="271.73" xlink:href="#linear-gradient"/><linearGradient id="linear-gradient-49" x1="144.66" y1="202.72" x2="144.34" y2="281.5" xlink:href="#linear-gradient"/><linearGradient id="linear-gradient-50" x1="369.63" y1="13.58" x2="505.96" y2="275.94" xlink:href="#linear-gradient-8"/><linearGradient id="linear-gradient-51" x1="450.25" y1="160.68" x2="-2.12" y2="264.85" xlink:href="#linear-gradient"/><linearGradient id="linear-gradient-52" x1="357.06" y1="48.74" x2="539.24" y2="399.36" xlink:href="#linear-gradient-8"/><linearGradient id="linear-gradient-53" x1="364.94" y1="95.28" x2="316.99" y2="95.62" xlink:href="#linear-gradient-8"/><linearGradient id="linear-gradient-54" x1="229.38" y1="98.4" x2="229.54" y2="131.94" xlink:href="#linear-gradient"/><linearGradient id="linear-gradient-55" x1="210.57" y1="103.55" x2="210.73" y2="137.08" xlink:href="#linear-gradient"/><linearGradient id="linear-gradient-56" x1="229.38" y1="109.17" x2="229.54" y2="142.71" xlink:href="#linear-gradient"/><linearGradient id="linear-gradient-57" x1="210.57" y1="114.32" x2="210.73" y2="147.85" xlink:href="#linear-gradient"/><linearGradient id="linear-gradient-58" x1="229.38" y1="119.94" x2="229.54" y2="153.48" xlink:href="#linear-gradient"/><linearGradient id="linear-gradient-59" x1="210.57" y1="125.09" x2="210.73" y2="158.62" xlink:href="#linear-gradient"/><linearGradient id="linear-gradient-60" x1="229.38" y1="130.72" x2="229.54" y2="164.25" xlink:href="#linear-gradient"/><linearGradient id="linear-gradient-61" x1="210.57" y1="135.86" x2="210.73" y2="169.39" xlink:href="#linear-gradient"/><linearGradient id="linear-gradient-62" x1="229.38" y1="141.49" x2="229.54" y2="175.02" xlink:href="#linear-gradient"/><linearGradient id="linear-gradient-63" x1="210.57" y1="146.63" x2="210.73" y2="180.17" xlink:href="#linear-gradient"/><linearGradient id="linear-gradient-64" x1="229.38" y1="152.26" x2="229.54" y2="185.79" xlink:href="#linear-gradient"/><linearGradient id="linear-gradient-65" x1="210.57" y1="157.4" x2="210.73" y2="190.94" xlink:href="#linear-gradient"/><linearGradient id="linear-gradient-66" x1="229.38" y1="163.03" x2="229.54" y2="196.56" xlink:href="#linear-gradient"/><linearGradient id="linear-gradient-67" x1="210.57" y1="168.17" x2="210.73" y2="201.71" xlink:href="#linear-gradient"/><linearGradient id="linear-gradient-68" x1="229.38" y1="173.8" x2="229.54" y2="207.33" xlink:href="#linear-gradient"/><linearGradient id="linear-gradient-69" x1="210.57" y1="178.94" x2="210.73" y2="212.48" xlink:href="#linear-gradient"/><linearGradient id="linear-gradient-70" x1="246.26" y1="285.42" x2="305.42" y2="660.95" xlink:href="#linear-gradient"/><linearGradient id="linear-gradient-71" x1="87.75" y1="399.63" x2="188.95" y2="399.63" xlink:href="#linear-gradient"/><linearGradient id="linear-gradient-72" x1="91.02" y1="235.17" x2="91.41" y2="276.2" xlink:href="#linear-gradient"/><linearGradient id="linear-gradient-73" x1="69.56" y1="235.17" x2="69.95" y2="276.2" xlink:href="#linear-gradient"/><linearGradient id="linear-gradient-74" x1="48.1" y1="235.17" x2="48.49" y2="276.2" xlink:href="#linear-gradient"/><linearGradient id="linear-gradient-75" x1="488.02" y1="235.17" x2="488.41" y2="276.2" xlink:href="#linear-gradient"/><linearGradient id="linear-gradient-76" x1="466.56" y1="235.17" x2="466.95" y2="276.2" xlink:href="#linear-gradient"/><linearGradient id="linear-gradient-77" x1="445.1" y1="235.17" x2="445.49" y2="276.2" xlink:href="#linear-gradient"/><linearGradient id="linear-gradient-78" x1="267.22" y1="218.02" x2="177.03" y2="239.73" xlink:href="#linear-gradient-8"/><linearGradient id="linear-gradient-79" x1="263.78" y1="201.43" x2="263.61" y2="291.77" xlink:href="#linear-gradient"/><linearGradient id="linear-gradient-80" x1="263.78" y1="209.3" x2="263.61" y2="299.65" xlink:href="#linear-gradient"/><linearGradient id="linear-gradient-81" x1="263.78" y1="217.18" x2="263.61" y2="307.53" xlink:href="#linear-gradient"/><linearGradient id="linear-gradient-82" x1="263.78" y1="225.06" x2="263.61" y2="315.4" xlink:href="#linear-gradient"/><clipPath id="clip-path" transform="translate(0.39 -70.84)"><path d="M57.67,381.45c23.31,17,71.65,25.8,109.58,25.51A45.51,45.51,0,0,0,179,405.77c8.94-2.46,15.68-9.62,21.93-16.47a10.94,10.94,0,0,0,3-4.65c.55-2.36-.5-4.78-1.77-6.84-4.46-7.28-11.67-12.43-19.11-16.61-18.58-10.41-39.66-15.83-60.85-18s-42.58-1.3-63.83.3c-4.49.34-9.14.76-13.06,3-5.84,3.31-9.4,14.87-5.75,21.16C43.44,374.35,51.12,376.67,57.67,381.45Z" fill="none"/></clipPath><linearGradient id="linear-gradient-83" x1="117.53" y1="367.71" x2="117.53" y2="385.07" xlink:href="#linear-gradient"/><linearGradient id="linear-gradient-84" x1="116.48" y1="336.65" x2="112.3" y2="417.37" xlink:href="#linear-gradient-8"/><linearGradient id="linear-gradient-85" x1="114.68" y1="359.5" x2="109.62" y2="522.03" xlink:href="#linear-gradient"/><linearGradient id="linear-gradient-86" x1="108.61" y1="345.09" x2="98.97" y2="389.46" xlink:href="#linear-gradient"/><linearGradient id="linear-gradient-87" x1="59" y1="321" x2="80.84" y2="321" xlink:href="#linear-gradient"/><linearGradient id="linear-gradient-88" x1="62.98" y1="321" x2="76.62" y2="321" xlink:href="#linear-gradient"/><linearGradient id="linear-gradient-89" x1="152.02" y1="321" x2="173.86" y2="321" xlink:href="#linear-gradient"/><linearGradient id="linear-gradient-90" x1="156.12" y1="321" x2="169.75" y2="321" xlink:href="#linear-gradient"/><linearGradient id="linear-gradient-91" x1="42.28" y1="373.06" x2="49.93" y2="373.06" xlink:href="#linear-gradient-8"/><linearGradient id="linear-gradient-92" x1="188.58" y1="365.28" x2="126.96" y2="458.12" xlink:href="#linear-gradient-8"/><linearGradient id="linear-gradient-93" x1="141.06" y1="366.54" x2="147.73" y2="366.54" xlink:href="#linear-gradient-8"/><linearGradient id="linear-gradient-94" x1="110.29" y1="363.89" x2="110.04" y2="406.93" xlink:href="#linear-gradient"/><linearGradient id="linear-gradient-95" x1="121.46" y1="363.95" x2="121.21" y2="406.99" xlink:href="#linear-gradient"/><linearGradient id="linear-gradient-96" x1="164.35" y1="278.1" x2="102.74" y2="370.94" xlink:href="#linear-gradient-8"/></defs><title>City Building 1</title><path d="M565.34,252.77a102.65,102.65,0,0,1-24.77,44.09c-7,7.29-15,13.56-22.75,20-.75.65-1.54,1.3-2.3,2-6.37,5.38-12.57,11-17.84,17.47-9.63,11.75-16,25.9-24.7,38.4-19.19,27.75-48.48,46.18-78.56,60.06-41,18.87-86.7,30.76-130.76,22.06-14.11-2.81-27.78-7.64-41.41-12.47Q169.68,425.71,117,407.06C94,398.88,70.62,390.55,50,377.09s-38.65-32.86-46-56.94c-.27-.85-.51-1.71-.75-2.6-.07-.21-.1-.45-.17-.65-4.69-17.65-3.73-36.49-1.75-54.71.1-.82.17-1.68.28-2.5,1.74-14.94,4.55-30.15,12.74-42.52,13.81-20.89,39.22-29.08,59.78-42.82,44.26-29.6,68.82-87.35,125.38-92.19C263.12,76.75,326.05,57.64,387.85,86,408,95.29,426,108.82,445.64,119.13c21.1,11.06,43.88,18.36,65,29.36s41.25,26.55,51.28,48.68C569.82,214.54,570.3,234.27,565.34,252.77Z" transform="translate(0.39 -70.84)" fill="#ff6347" opacity="0.24" style="isolation:isolate"/><path d="M565.34,243.59v9.18a102.65,102.65,0,0,1-24.77,44.09c-7,7.29-15,13.56-22.75,20-.75.65-1.54,1.3-2.3,2h-6.78v-1.3H3.17c-.07-.21-.1-.45-.17-.65-4.69-17.65-3.73-36.49-1.75-54.71.1-.82.17-1.68.28-2.5H14.92V238.93H32.73v20.76H41V241.84h11.1v17.85h2.39V218.2h22.2v41.49H455.37V196h31.52v23.16h41.17v24.43h8.36V198h18.64v45.63Z" transform="translate(0.39 -70.84)" fill="#ff6347" opacity="0.24" style="isolation:isolate"/><polygon points="244.86 250.24 153.88 250.24 153.88 110.52 208.91 66.66 244.86 66.66 244.86 250.24" fill="#ff6347"/><polygon points="244.86 250.24 162.33 250.24 162.33 123.51 212.25 83.72 244.86 83.72 244.86 250.24" fill="url(#linear-gradient)"/><rect x="159.98" y="111.03" width="17.36" height="134.39" fill="url(#linear-gradient-2)"/><polygon points="244.58 89.52 215.29 89.52 170.53 125.16 160.65 125.16 212.25 83.72 244.86 83.72 244.58 89.52" fill="url(#linear-gradient-3)"/><path d="M517.82,316.9c-7.13,6-14.11,12.06-20,19.28a1.7,1.7,0,0,1-.1.14c-9.63,11.75-16,25.9-24.7,38.4-12.78,18.47-30,32.82-49,44.4a282.43,282.43,0,0,1-29.57,15.66c-41,18.87-86.7,30.76-130.76,22.06-14.11-2.81-27.78-7.64-41.41-12.47q-35.56-12.64-71.19-25.25l-34-12.06C94,398.88,70.62,390.55,50,377.09c-15.83-10.35-30.12-24.15-39.23-40.91a84.06,84.06,0,0,1-6.82-16c-.34-1.06-.65-2.16-.92-3.25Z" transform="translate(0.39 -70.84)" fill="#ff6347"/><path d="M95.92,318.71a35.21,35.21,0,0,0-13.17,2.23c30.81,9,63.83,1.77,95.89,3.61,2.13.12,4.26.28,6.36.61,1.47.22,2.91.53,4.38.76a83,83,0,0,0,11.15.75q88.26,2,176.56-.45c32.2-.89,65.53-1,97-7.74-79-.43-158.3,7.47-236.85-1-16.18-1.74-32.32-4.19-48.59-4.67-10.94-.33-21.88.23-32.81.79l-47.8,2.45C104.12,316.26,99.88,318.8,95.92,318.71Z" transform="translate(0.39 -70.84)" fill="url(#linear-gradient-4)"/><rect x="96.64" y="104.92" width="72.02" height="145.33" fill="#ff6347"/><rect x="249.2" y="166.33" width="55.3" height="83.84" fill="#ff6347"/><rect x="249.2" y="166.33" width="55.3" height="83.84" fill="url(#linear-gradient-5)"/><rect x="255.33" y="171.73" width="4.96" height="39.77" fill="#ff6347"/><rect x="265.94" y="171.73" width="4.96" height="39.77" fill="#ff6347"/><rect x="276.55" y="171.73" width="4.96" height="39.77" fill="#ff6347"/><rect x="287.16" y="171.73" width="4.96" height="78.68" fill="#ff6347"/><rect x="298.23" y="166.33" width="13.18" height="83.59" fill="url(#linear-gradient-6)"/><rect x="220.26" y="205.23" width="69.45" height="45.33" fill="#fff"/><polygon points="335.27 82.23 390.29 102.87 390.29 130.38 335.27 130.38 335.27 82.23" fill="#ff6347"/><polygon points="335.27 82.23 390.29 102.87 390.29 130.38 335.27 130.38 335.27 82.23" fill="url(#linear-gradient-7)"/><line x1="342.21" y1="84.58" x2="342.21" y2="128.93" fill="none" stroke-miterlimit="10" stroke-width="3.43" stroke="url(#linear-gradient-8)"/><line x1="351.99" y1="87.61" x2="351.99" y2="128.93" fill="none" stroke-miterlimit="10" stroke-width="3.43" stroke="url(#linear-gradient-9)"/><line x1="361.77" y1="91.51" x2="361.77" y2="128.93" fill="none" stroke-miterlimit="10" stroke-width="3.43" stroke="url(#linear-gradient-10)"/><line x1="371.54" y1="95.39" x2="371.54" y2="128.93" fill="none" stroke-miterlimit="10" stroke-width="3.43" stroke="url(#linear-gradient-11)"/><line x1="381.32" y1="98.11" x2="381.32" y2="128.93" fill="none" stroke-miterlimit="10" stroke-width="3.43" stroke="url(#linear-gradient-12)"/><line x1="335.27" y1="120.21" x2="389.1" y2="120.21" fill="none" stroke-miterlimit="10" stroke-width="3.43" stroke="url(#linear-gradient-13)"/><line x1="335.27" y1="110.64" x2="389.1" y2="110.64" fill="none" stroke-miterlimit="10" stroke-width="3.43" stroke="url(#linear-gradient-14)"/><line x1="335.27" y1="101.07" x2="384.76" y2="101.07" fill="none" stroke-miterlimit="10" stroke-width="3.43" stroke="url(#linear-gradient-15)"/><line x1="335.27" y1="91.51" x2="360.09" y2="91.51" fill="none" stroke-miterlimit="10" stroke-width="3.43" stroke="url(#linear-gradient-16)"/><polygon points="397.47 250.3 397.47 112.34 303.77 133.87 303.77 250.3 397.47 250.3" fill="#ff6347"/><path d="M312.49,202.9c-.34,36.9-.34,72.79,0,110.37" transform="translate(0.39 -70.84)" fill="none" stroke-miterlimit="10" stroke-width="3.43" stroke="url(#linear-gradient-17)"/><path d="M322.27,200.37c-.55,37-.55,75.32,0,112.84" transform="translate(0.39 -70.84)" fill="none" stroke-miterlimit="10" stroke-width="3.43" stroke="url(#linear-gradient-18)"/><path d="M332.05,198.13c.44,38.09.44,76.36,0,115.23" transform="translate(0.39 -70.84)" fill="none" stroke-miterlimit="10" stroke-width="3.43" stroke="url(#linear-gradient-19)"/><path d="M341.82,196.09c.24,38.93.24,77.21,0,117.2" transform="translate(0.39 -70.84)" fill="none" stroke-miterlimit="10" stroke-width="3.43" stroke="url(#linear-gradient-20)"/><path d="M351.6,194c0,39.87,0,79.35,0,119.22" transform="translate(0.39 -70.84)" fill="none" stroke-miterlimit="10" stroke-width="3.43" stroke="url(#linear-gradient-21)"/><path d="M361.38,191.39c-.18,41.24-.18,80.71,0,122" transform="translate(0.39 -70.84)" fill="none" stroke-miterlimit="10" stroke-width="3.43" stroke="url(#linear-gradient-22)"/><path d="M371.16,189.46c-.39,40.77-.39,82.64,0,123.77" transform="translate(0.39 -70.84)" fill="none" stroke-miterlimit="10" stroke-width="3.43" stroke="url(#linear-gradient-23)"/><path d="M380.93,187.27c.6,41.77.6,83.64,0,125.88" transform="translate(0.39 -70.84)" fill="none" stroke-miterlimit="10" stroke-width="3.43" stroke="url(#linear-gradient-24)"/><line x1="303.77" y1="244.62" x2="392.98" y2="244.62" fill="none" stroke-miterlimit="10" stroke-width="3.43" stroke="url(#linear-gradient-25)"/><line x1="303.77" y1="235.05" x2="392.98" y2="235.05" fill="none" stroke-miterlimit="10" stroke-width="3.43" stroke="url(#linear-gradient-26)"/><line x1="303.77" y1="225.48" x2="392.98" y2="225.48" fill="none" stroke-miterlimit="10" stroke-width="3.43" stroke="url(#linear-gradient-27)"/><line x1="303.77" y1="215.91" x2="392.98" y2="215.91" fill="none" stroke-miterlimit="10" stroke-width="3.43" stroke="url(#linear-gradient-28)"/><line x1="303.77" y1="206.34" x2="392.98" y2="206.34" fill="none" stroke-miterlimit="10" stroke-width="3.43" stroke="url(#linear-gradient-29)"/><line x1="303.77" y1="196.77" x2="392.98" y2="196.77" fill="none" stroke-miterlimit="10" stroke-width="3.43" stroke="url(#linear-gradient-30)"/><line x1="303.77" y1="187.2" x2="392.98" y2="187.2" fill="none" stroke-miterlimit="10" stroke-width="3.43" stroke="url(#linear-gradient-31)"/><line x1="303.77" y1="177.63" x2="392.98" y2="177.63" fill="none" stroke-miterlimit="10" stroke-width="3.43" stroke="url(#linear-gradient-32)"/><line x1="303.77" y1="168.06" x2="392.98" y2="168.06" fill="none" stroke-miterlimit="10" stroke-width="3.43" stroke="url(#linear-gradient-33)"/><line x1="303.77" y1="158.49" x2="392.98" y2="158.49" fill="none" stroke-miterlimit="10" stroke-width="3.43" stroke="url(#linear-gradient-34)"/><line x1="303.77" y1="148.92" x2="392.98" y2="148.92" fill="none" stroke-miterlimit="10" stroke-width="3.43" stroke="url(#linear-gradient-35)"/><line x1="303.77" y1="139.35" x2="392.98" y2="139.35" fill="none" stroke-miterlimit="10" stroke-width="3.43" stroke="url(#linear-gradient-36)"/><line x1="322.66" y1="129.78" x2="392.98" y2="129.78" fill="none" stroke-miterlimit="10" stroke-width="3.43" stroke="url(#linear-gradient-37)"/><rect x="389.1" y="61.3" width="55.42" height="189" fill="#ff6347"/><rect x="389.1" y="61.3" width="55.42" height="20.93" fill="#ff6347"/><path d="M394.89,132.15c-.2,59.17-.2,119.53,0,179.13" transform="translate(0.39 -70.84)" fill="none" stroke="#fff" stroke-miterlimit="10" stroke-width="1.71"/><path d="M402.07,132.15c-.2,59.17-.2,119.53,0,179.13" transform="translate(0.39 -70.84)" fill="none" stroke="#fff" stroke-miterlimit="10" stroke-width="1.71"/><path d="M409.24,132.15c-.2,59.17-.2,119.53,0,179.13" transform="translate(0.39 -70.84)" fill="none" stroke="#fff" stroke-miterlimit="10" stroke-width="1.71"/><path d="M416.42,132.15c-.2,59.17-.2,119.53,0,179.13" transform="translate(0.39 -70.84)" fill="none" stroke="#fff" stroke-miterlimit="10" stroke-width="1.71"/><path d="M423.6,311.28c-.2-59.6-.2-120,0-179.13" transform="translate(0.39 -70.84)" fill="none" stroke="#fff" stroke-miterlimit="10" stroke-width="1.71"/><path d="M430.77,132.15c-.19,59.17-.19,119.53,0,179.13" transform="translate(0.39 -70.84)" fill="none" stroke="#fff" stroke-miterlimit="10" stroke-width="1.71"/><path d="M438,132.15c-.2,59.17-.2,119.53,0,179.13" transform="translate(0.39 -70.84)" fill="none" stroke="#fff" stroke-miterlimit="10" stroke-width="1.71"/><line x1="389.1" y1="68.48" x2="444.52" y2="68.48" fill="none" stroke="#fff" stroke-miterlimit="10" stroke-width="1.71"/><line x1="389.1" y1="75.36" x2="444.52" y2="75.36" fill="none" stroke="#fff" stroke-miterlimit="10" stroke-width="1.71"/><line x1="389.1" y1="82.23" x2="444.52" y2="82.23" fill="none" stroke="#fff" stroke-miterlimit="10" stroke-width="1.71"/><line x1="389.1" y1="89.11" x2="444.52" y2="89.11" fill="none" stroke="#fff" stroke-miterlimit="10" stroke-width="1.71"/><line x1="444.52" y1="95.99" x2="389.1" y2="95.99" fill="none" stroke="#fff" stroke-miterlimit="10" stroke-width="1.71"/><line x1="389.1" y1="102.87" x2="444.52" y2="102.87" fill="none" stroke="#fff" stroke-miterlimit="10" stroke-width="1.71"/><line x1="389.1" y1="109.75" x2="444.52" y2="109.75" fill="none" stroke="#fff" stroke-miterlimit="10" stroke-width="1.71"/><line x1="389.1" y1="116.63" x2="444.52" y2="116.63" fill="none" stroke="#fff" stroke-miterlimit="10" stroke-width="1.71"/><line x1="389.1" y1="123.5" x2="444.52" y2="123.5" fill="none" stroke="#fff" stroke-miterlimit="10" stroke-width="1.71"/><line x1="389.1" y1="130.38" x2="444.52" y2="130.38" fill="none" stroke="#fff" stroke-miterlimit="10" stroke-width="1.71"/><line x1="389.1" y1="137.26" x2="444.52" y2="137.26" fill="none" stroke="#fff" stroke-miterlimit="10" stroke-width="1.71"/><line x1="389.1" y1="144.14" x2="444.52" y2="144.14" fill="none" stroke="#fff" stroke-miterlimit="10" stroke-width="1.71"/><line x1="389.1" y1="151.02" x2="444.52" y2="151.02" fill="none" stroke="#fff" stroke-miterlimit="10" stroke-width="1.71"/><line x1="389.1" y1="157.89" x2="444.52" y2="157.89" fill="none" stroke="#fff" stroke-miterlimit="10" stroke-width="1.71"/><line x1="389.1" y1="164.77" x2="444.52" y2="164.77" fill="none" stroke="#fff" stroke-miterlimit="10" stroke-width="1.71"/><line x1="389.1" y1="171.65" x2="444.52" y2="171.65" fill="none" stroke="#fff" stroke-miterlimit="10" stroke-width="1.71"/><line x1="389.1" y1="178.53" x2="444.52" y2="178.53" fill="none" stroke="#fff" stroke-miterlimit="10" stroke-width="1.71"/><line x1="389.1" y1="185.41" x2="444.52" y2="185.41" fill="none" stroke="#fff" stroke-miterlimit="10" stroke-width="1.71"/><line x1="389.1" y1="192.29" x2="444.52" y2="192.29" fill="none" stroke="#fff" stroke-miterlimit="10" stroke-width="1.71"/><line x1="389.1" y1="199.16" x2="444.52" y2="199.16" fill="none" stroke="#fff" stroke-miterlimit="10" stroke-width="1.71"/><line x1="389.1" y1="206.04" x2="444.52" y2="206.04" fill="none" stroke="#fff" stroke-miterlimit="10" stroke-width="1.71"/><line x1="389.1" y1="212.92" x2="444.52" y2="212.92" fill="none" stroke="#fff" stroke-miterlimit="10" stroke-width="1.71"/><line x1="389.1" y1="219.8" x2="444.52" y2="219.8" fill="none" stroke="#fff" stroke-miterlimit="10" stroke-width="1.71"/><line x1="389.1" y1="226.68" x2="444.52" y2="226.68" fill="none" stroke="#fff" stroke-miterlimit="10" stroke-width="1.71"/><line x1="389.1" y1="233.55" x2="444.52" y2="233.55" fill="none" stroke="#fff" stroke-miterlimit="10" stroke-width="1.71"/><line x1="389.1" y1="240.43" x2="444.52" y2="240.43" fill="none" stroke="#fff" stroke-miterlimit="10" stroke-width="1.71"/><rect x="96.64" y="104.6" width="18.97" height="145.65" fill="url(#linear-gradient-38)"/><polygon points="142.94 104.92 114.97 157.32 114.97 215.2 168.66 104.92 142.94 104.92" fill="url(#linear-gradient-39)"/><rect x="120.47" y="130.64" width="48.23" height="4.18" fill="url(#linear-gradient-40)"/><rect x="120.47" y="140.41" width="48.23" height="4.18" fill="url(#linear-gradient-41)"/><rect x="120.47" y="150.17" width="48.23" height="4.18" fill="url(#linear-gradient-42)"/><rect x="120.47" y="159.94" width="48.23" height="4.18" fill="url(#linear-gradient-43)"/><rect x="120.47" y="169.7" width="48.23" height="4.18" fill="url(#linear-gradient-44)"/><rect x="120.47" y="179.47" width="48.23" height="4.18" fill="url(#linear-gradient-45)"/><rect x="120.47" y="189.24" width="48.23" height="4.18" fill="url(#linear-gradient-46)"/><rect x="120.47" y="199" width="48.23" height="4.18" fill="url(#linear-gradient-47)"/><rect x="120.47" y="208.77" width="48.23" height="4.18" fill="url(#linear-gradient-48)"/><rect x="120.47" y="218.53" width="48.23" height="4.18" fill="url(#linear-gradient-49)"/><polygon points="389.38 113.44 422.01 60.87 444.52 61.3 389.22 147.68 389.38 113.44" fill="url(#linear-gradient-50)"/><polygon points="389.06 97.62 396.05 101.42 396.05 250.3 389.1 250.3 389.06 97.62" fill="url(#linear-gradient-51)"/><polygon points="389.38 190.6 444.52 102.87 444.52 138.47 389.22 224.84 389.38 190.6" fill="url(#linear-gradient-52)"/><polygon points="331.43 77.19 331.19 92.94 389.38 113.44 389.06 97.62 331.43 77.19" fill="#ff6347"/><polygon points="331.43 77.19 331.19 92.94 389.38 113.44 389.06 97.62 331.43 77.19" fill="url(#linear-gradient-53)"/><rect x="213.67" y="107.17" width="31.51" height="2.73" fill="url(#linear-gradient-54)"/><rect x="194.86" y="112.31" width="31.51" height="2.73" fill="url(#linear-gradient-55)"/><rect x="213.67" y="117.94" width="31.51" height="2.73" fill="url(#linear-gradient-56)"/><rect x="194.86" y="123.08" width="31.51" height="2.73" fill="url(#linear-gradient-57)"/><rect x="213.67" y="128.71" width="31.51" height="2.73" fill="url(#linear-gradient-58)"/><rect x="194.86" y="133.85" width="31.51" height="2.73" fill="url(#linear-gradient-59)"/><rect x="213.67" y="139.48" width="31.51" height="2.73" fill="url(#linear-gradient-60)"/><rect x="194.86" y="144.63" width="31.51" height="2.73" fill="url(#linear-gradient-61)"/><rect x="213.67" y="150.25" width="31.51" height="2.73" fill="url(#linear-gradient-62)"/><rect x="194.86" y="155.4" width="31.51" height="2.73" fill="url(#linear-gradient-63)"/><rect x="213.67" y="161.02" width="31.51" height="2.73" fill="url(#linear-gradient-64)"/><rect x="194.86" y="166.17" width="31.51" height="2.73" fill="url(#linear-gradient-65)"/><rect x="213.67" y="171.79" width="31.51" height="2.73" fill="url(#linear-gradient-66)"/><rect x="194.86" y="176.94" width="31.51" height="2.73" fill="url(#linear-gradient-67)"/><rect x="213.67" y="182.56" width="31.51" height="2.73" fill="url(#linear-gradient-68)"/><rect x="194.86" y="187.71" width="31.51" height="2.73" fill="url(#linear-gradient-69)"/><path d="M497.78,336.18a1.7,1.7,0,0,1-.1.14c-9.63,11.75-16,25.9-24.7,38.4-12.78,18.47-30,32.82-49,44.4H151.06l-34-12.06C94,398.88,70.62,390.55,50,377.09c-15.83-10.35-30.12-24.15-39.23-40.91Z" transform="translate(0.39 -70.84)" fill="#ff6347"/><path d="M497.78,336.18a1.7,1.7,0,0,1-.1.14c-9.63,11.75-16,25.9-24.7,38.4-12.78,18.47-30,32.82-49,44.4H151.06l-34-12.06c-3.12-1.09-6.27-2.22-9.38-3.35-6.68-2.4-13.33-4.87-19.91-7.54-13.12-5.28-25.9-11.34-37.78-19.08-15.83-10.35-30.12-24.15-39.23-40.91Z" transform="translate(0.39 -70.84)" fill="url(#linear-gradient-70)"/><path d="M189,399.63c0,2.33-28.71,4.25-64.1,4.25-6,0-11.71-.07-17.19-.17-6.68-2.4-13.33-4.87-19.91-7.54,10.48-.48,23.26-.79,37.1-.79C160.24,395.38,189,397.27,189,399.63Z" transform="translate(0.39 -70.84)" fill="url(#linear-gradient-71)"/><path d="M82,297.19c1.13-3.41,2.53-6.76,3.1-10.3.62-3.83.23-7.74.5-11.6s1.31-7.92,4.15-10.55a44.22,44.22,0,0,1,3.63,9.33c1.46,6.6-.13,13.64,1.69,20.15a61.66,61.66,0,0,0,3.24,7.91,19.15,19.15,0,0,1,2,8.26c-.25,6.8-8,10.37-13.71,6.93C79.59,313.12,79.77,303.89,82,297.19Z" transform="translate(0.39 -70.84)" fill="#ff6347"/><polygon points="92.98 251.17 89.38 251.17 90.45 238.12 92.1 238.12 92.98 251.17" fill="#ff6347"/><polygon points="92.98 251.17 89.38 251.17 90.45 238.12 92.1 238.12 92.98 251.17" fill="url(#linear-gradient-72)"/><path d="M60.53,297.19c1.13-3.41,2.53-6.76,3.1-10.3.61-3.83.23-7.74.49-11.6s1.31-7.92,4.16-10.55a43.65,43.65,0,0,1,3.62,9.33c1.47,6.6-.12,13.64,1.7,20.15a61.66,61.66,0,0,0,3.24,7.91,19.15,19.15,0,0,1,2,8.26c-.25,6.8-8,10.37-13.71,6.93C58.13,313.12,58.31,303.89,60.53,297.19Z" transform="translate(0.39 -70.84)" fill="#ff6347"/><polygon points="71.52 251.17 67.91 251.17 68.98 238.12 70.64 238.12 71.52 251.17" fill="#ff6347"/><polygon points="71.52 251.17 67.91 251.17 68.98 238.12 70.64 238.12 71.52 251.17" fill="url(#linear-gradient-73)"/><path d="M39.07,297.19c1.12-3.41,2.53-6.76,3.1-10.3.61-3.83.23-7.74.49-11.6s1.31-7.92,4.16-10.55a44.18,44.18,0,0,1,3.62,9.33c1.47,6.6-.12,13.64,1.69,20.15a61.72,61.72,0,0,0,3.25,7.91,19.15,19.15,0,0,1,2,8.26c-.26,6.8-8,10.37-13.71,6.93C36.67,313.12,36.85,303.89,39.07,297.19Z" transform="translate(0.39 -70.84)" fill="#ff6347"/><polygon points="50.05 251.17 46.45 251.17 47.52 238.12 49.18 238.12 50.05 251.17" fill="#ff6347"/><polygon points="50.05 251.17 46.45 251.17 47.52 238.12 49.18 238.12 50.05 251.17" fill="url(#linear-gradient-74)"/><path d="M479,297.19c1.12-3.41,2.53-6.76,3.1-10.3.61-3.83.23-7.74.49-11.6s1.31-7.92,4.16-10.55a44.18,44.18,0,0,1,3.62,9.33c1.47,6.6-.12,13.64,1.69,20.15a61.72,61.72,0,0,0,3.25,7.91,19.15,19.15,0,0,1,2,8.26c-.26,6.8-8,10.37-13.71,6.93C476.59,313.12,476.77,303.89,479,297.19Z" transform="translate(0.39 -70.84)" fill="#ff6347"/><polygon points="489.98 251.17 486.37 251.17 487.44 238.12 489.1 238.12 489.98 251.17" fill="#ff6347"/><polygon points="489.98 251.17 486.37 251.17 487.44 238.12 489.1 238.12 489.98 251.17" fill="url(#linear-gradient-75)"/><path d="M457.53,297.19c1.12-3.41,2.53-6.76,3.1-10.3.61-3.83.23-7.74.49-11.6s1.31-7.92,4.16-10.55a44.18,44.18,0,0,1,3.62,9.33c1.47,6.6-.12,13.64,1.69,20.15a61.72,61.72,0,0,0,3.25,7.91,19.3,19.3,0,0,1,2,8.26c-.26,6.8-8,10.37-13.72,6.93C455.13,313.12,455.31,303.89,457.53,297.19Z" transform="translate(0.39 -70.84)" fill="#ff6347"/><polygon points="468.51 251.17 464.91 251.17 465.98 238.12 467.64 238.12 468.51 251.17" fill="#ff6347"/><polygon points="468.51 251.17 464.91 251.17 465.98 238.12 467.64 238.12 468.51 251.17" fill="url(#linear-gradient-76)"/><path d="M436.06,297.19c1.13-3.41,2.54-6.76,3.11-10.3.61-3.83.23-7.74.49-11.6s1.31-7.92,4.16-10.55a44.73,44.73,0,0,1,3.62,9.33c1.47,6.6-.12,13.64,1.69,20.15a61.72,61.72,0,0,0,3.25,7.91,19.3,19.3,0,0,1,2,8.26c-.26,6.8-8,10.37-13.72,6.93C433.67,313.12,433.85,303.89,436.06,297.19Z" transform="translate(0.39 -70.84)" fill="#ff6347"/><polygon points="447.05 251.17 443.45 251.17 444.52 238.12 446.18 238.12 447.05 251.17" fill="#ff6347"/><polygon points="447.05 251.17 443.45 251.17 444.52 238.12 446.18 238.12 447.05 251.17" fill="url(#linear-gradient-77)"/><rect x="220.26" y="205.47" width="10.85" height="45.09" fill="#ff6347"/><rect x="220.26" y="205.47" width="10.85" height="45.09" fill="url(#linear-gradient-78)"/><rect x="239.23" y="214.8" width="49.03" height="4.34" fill="url(#linear-gradient-79)"/><rect x="239.23" y="222.67" width="49.03" height="4.34" fill="url(#linear-gradient-80)"/><rect x="239.23" y="230.55" width="49.03" height="4.34" fill="url(#linear-gradient-81)"/><rect x="239.23" y="238.43" width="49.03" height="4.34" fill="url(#linear-gradient-82)"/><g clip-path="url(#clip-path)"><path d="M94.31,391.16c-5,.43-10.07,1.08-15,.34a54.27,54.27,0,0,1-8.63-2.26c-3.26-1.05-6.63-2.16-9.13-4.51a23.33,23.33,0,0,1-4-5.69,2.73,2.73,0,0,1-.47-1.41,2.11,2.11,0,0,1,1-1.46c1.55-1.05,3.53-1.12,5.4-1.13q7.47-.06,14.92.28a48.78,48.78,0,0,1,7.91.82c3.35.72,6.53,2.07,9.83,3,5.74,1.69,11.76,2.18,17.74,2.66,6.42.51,13,1,19.24-.56,3.77-.94,7.31-2.62,11-3.87,9.87-3.33,21.61-3.2,29.84,3.2a10.65,10.65,0,0,1,3.55,4.25,11,11,0,0,1-.32,7.83c-.88,2.15-2.22,2.2-4.36,2.09-6.35-.35-12.7-1-19-1.63-12.66-1.16-25.34-2.34-38-2.6A206.25,206.25,0,0,0,94.31,391.16Z" transform="translate(0.39 -70.84)" fill="#ff6347"/><path d="M94.31,391.16c-5,.43-10.07,1.08-15,.34a54.27,54.27,0,0,1-8.63-2.26c-3.26-1.05-6.63-2.16-9.13-4.51a23.33,23.33,0,0,1-4-5.69,2.73,2.73,0,0,1-.47-1.41,2.11,2.11,0,0,1,1-1.46c1.55-1.05,3.53-1.12,5.4-1.13q7.47-.06,14.92.28a48.78,48.78,0,0,1,7.91.82c3.35.72,6.53,2.07,9.83,3,5.74,1.69,11.76,2.18,17.74,2.66,6.42.51,13,1,19.24-.56,3.77-.94,7.31-2.62,11-3.87,9.87-3.33,21.61-3.2,29.84,3.2a10.65,10.65,0,0,1,3.55,4.25,11,11,0,0,1-.32,7.83c-.88,2.15-2.22,2.2-4.36,2.09-6.35-.35-12.7-1-19-1.63-12.66-1.16-25.34-2.34-38-2.6A206.25,206.25,0,0,0,94.31,391.16Z" transform="translate(0.39 -70.84)" fill="url(#linear-gradient-83)"/><path d="M52.73,354s-5.73,5.95-7.5,12.57l-1.54,1.54a86.38,86.38,0,0,0-2,12l-1.37,2a18,18,0,0,0-.57,3.48,30.39,30.39,0,0,0,.35,3.66,5.9,5.9,0,0,1-.35.89l2.58,1.54,14.64,1.75a27.28,27.28,0,0,1,.59-7.74c.93-3.84,4.57-6,6.52-6.65s8.7-1.89,12.91,1.32,4.76,7.48,5.09,11.72l68.24,1.29s-.13-6.32,2.61-10,6.82-4.7,10.76-4.57,7.21,1.39,9.79,5.23S175,395,175,395l11.78-.93s1-.69,1-1-1.19-1.36-1.19-1.36l.56-3.11.63-.53a57.07,57.07,0,0,0-.39-5.86,4.92,4.92,0,0,0-.53-.76l-2.29-5.72a10.15,10.15,0,0,0-3.6-2.52,98.61,98.61,0,0,0-21.9-5l-2.47-.28S143.45,358,133.13,354a21.51,21.51,0,0,0-3.45-1.13c-1.94-.46-14.17-1.52-14.17-1.52a505.52,505.52,0,0,0-57.09,0,72.93,72.93,0,0,0-7.18,1.42l.07.79Z" transform="translate(0.39 -70.84)" fill="#ff6347"/><path d="M187.78,393.05c0,.31-1,1-1,1L175,395s1-7.09-1.58-10.93-5.85-5.1-9.79-5.24-8,.86-10.76,4.56-2.6,10-2.6,10l-68.24-1.3c-.35-4.21-.9-8.49-5.11-11.71s-11-2-12.91-1.31-5.59,2.81-6.51,6.65a28,28,0,0,0-.62,7.74l-14.63-1.74-2.57-1.55a4.46,4.46,0,0,0,.35-.89,27,27,0,0,1-.35-3.66,17.43,17.43,0,0,1,.59-3.5l1.33-2c0-.28,0-.59.07-.89a92.58,92.58,0,0,1,2-11.14l1.54-1.54C47,360,52.74,354,52.74,354l-1.44-.45-.07-.79a71.88,71.88,0,0,1,7.2-1.43,507.9,507.9,0,0,1,57.07,0s12.23,1.06,14.18,1.54a18.47,18.47,0,0,1,3.43,1.13c10.34,4,23.5,13.91,23.5,13.91l2.47.27a98.18,98.18,0,0,1,21.89,5,9.89,9.89,0,0,1,3.59,2.5l2.3,5.72,0,.07a2,2,0,0,1,.48.72,6.59,6.59,0,0,1,.21,1.67c.14,1.75.2,4.18.2,4.18l-.61.52-.59,3.12S187.78,392.78,187.78,393.05Z" transform="translate(0.39 -70.84)" fill="url(#linear-gradient-84)"/><path d="M187.78,393.05c0,.31-1,1-1,1L175,395s1-7.09-1.58-10.93-5.85-5.1-9.79-5.24-8,.86-10.76,4.56-2.6,10-2.6,10l-68.24-1.3c-.35-4.21-.9-8.49-5.11-11.71s-11-2-12.91-1.31-5.59,2.81-6.51,6.65a28,28,0,0,0-.62,7.74l-14.63-1.74-2.57-1.55a4.46,4.46,0,0,0,.35-.89,27,27,0,0,1-.35-3.66,17.43,17.43,0,0,1,.59-3.5l1.33-2c0-.28,0-.59.07-.89l.58-.83,17.13-.92a16,16,0,0,1,15.62-5c9.8,2.26,11.24,9.15,11.24,9.15l60.6.17A23.3,23.3,0,0,1,162,376.06c9.49-.14,14,5.48,14,5.48l10.86-.1,0,.07.69,2.39c.14,1.75.2,4.18.2,4.18l-.61.52-.59,3.12S187.78,392.78,187.78,393.05Z" transform="translate(0.39 -70.84)" fill="url(#linear-gradient-85)"/><path d="M53.55,366a1.08,1.08,0,0,1-.95-1.47,31.37,31.37,0,0,1,4.1-7.47c2.74-3.35,6.71-4,9.36-4.14s16.37-.71,16.37-.71,27.09.13,33.13.66c0,0,12.36.66,16.55,2.56S147.82,365,147.82,365l6.87,5.27a.43.43,0,0,1-.29.78Z" transform="translate(0.39 -70.84)" fill="#ff6347"/><path d="M53.55,366a1.08,1.08,0,0,1-.95-1.47,31.37,31.37,0,0,1,4.1-7.47c2.74-3.35,6.71-4,9.36-4.14s16.37-.71,16.37-.71,27.09.13,33.13.66c0,0,12.36.66,16.55,2.56S147.82,365,147.82,365l6.87,5.27a.43.43,0,0,1-.29.78Z" transform="translate(0.39 -70.84)" fill="url(#linear-gradient-86)"/><path d="M45,367.71h4.42a.55.55,0,0,1,.52.71A29.45,29.45,0,0,0,48.54,376a.58.58,0,0,1-.58.57,5.6,5.6,0,0,0-2.2.33c-.62.39-2.43,1.56-3.48,1.5C42.28,378.41,42.78,370.58,45,367.71Z" transform="translate(0.39 -70.84)" fill="#ff6347"/><path d="M176.41,375.27l2,4.16s3.94,1.46,4.53,1.26a1.93,1.93,0,0,0,.93-.73l.89,0s-1.26-4-1.69-4.34a9.24,9.24,0,0,0-6.17-1.23A.63.63,0,0,0,176.41,375.27Z" transform="translate(0.39 -70.84)" fill="#ff6347"/><path d="M187.24,388.25s.4-.91-.44-.95-2.62,3.31-2.38,3.9,2,.62,2,.62l.66-3.35Z" transform="translate(0.39 -70.84)" fill="#ff6347"/><circle cx="69.8" cy="321" r="10.92" fill="#ff6347"/><circle cx="69.92" cy="321" r="10.92" fill="url(#linear-gradient-87)"/><circle cx="69.8" cy="321" r="6.82" fill="url(#linear-gradient-88)"/><circle cx="162.94" cy="321" r="10.92" fill="#ff6347"/><circle cx="162.94" cy="321" r="10.92" fill="url(#linear-gradient-89)"/><circle cx="162.94" cy="321" r="6.82" fill="url(#linear-gradient-90)"/><polygon points="82.82 281.38 80.94 296.75 81.36 296.75 83.26 281.11 82.82 281.38" fill="#ff6347"/><polygon points="115.33 281.99 115.33 298.45 117.14 298.45 116.48 281.99 115.33 281.99" fill="#ff6347"/><path d="M147,368.18s.46-3.26-.6-3.89-1.72-1-4.3-.77a1.05,1.05,0,0,0-.81,1.07c-.08,1-.43,3,0,3.51s3.71,1.47,5.5,1.54c0,0,.92-.35.95-.71S147,368.18,147,368.18Z" transform="translate(0.39 -70.84)" fill="#ff6347"/><path d="M107.68,371.38s-1.22,0-1.19.56,1.15.55,1.15.55a3.06,3.06,0,0,0,2,.85,2.59,2.59,0,0,0,1.82-.48s2.49.24,2.53-.5-2.37-.87-2.37-.87-.3-.64-2.18-.71A2.14,2.14,0,0,0,107.68,371.38Z" transform="translate(0.39 -70.84)" fill="#ff6347"/><path d="M124,372.23s1.21.2,1.1.72-1.21.39-1.21.39a3.06,3.06,0,0,1-2.1.56,2.56,2.56,0,0,1-1.73-.74s-2.51-.12-2.44-.86,2.47-.52,2.47-.52.39-.6,2.26-.39A2.07,2.07,0,0,1,124,372.23Z" transform="translate(0.39 -70.84)" fill="#ff6347"/><polygon points="147.71 293.18 147.71 300.95 156.12 300.5 156.12 298.79 147.71 293.18" fill="#ff6347"/><path d="M45,367.71h4.42a.55.55,0,0,1,.52.71A29.45,29.45,0,0,0,48.54,376a.58.58,0,0,1-.58.57,5.6,5.6,0,0,0-2.2.33c-.62.39-2.43,1.56-3.48,1.5C42.28,378.41,42.78,370.58,45,367.71Z" transform="translate(0.39 -70.84)" fill="url(#linear-gradient-91)"/><path d="M176.41,375.27l2,4.16s3.94,1.46,4.53,1.26a1.93,1.93,0,0,0,.93-.73l.89,0s-1.26-4-1.69-4.34a9.24,9.24,0,0,0-6.17-1.23A.63.63,0,0,0,176.41,375.27Z" transform="translate(0.39 -70.84)" fill="url(#linear-gradient-92)"/><path d="M147,368.18s.46-3.26-.6-3.89-1.72-1-4.3-.77a1.05,1.05,0,0,0-.81,1.07c-.08,1-.43,3,0,3.51s3.71,1.47,5.5,1.54c0,0,.92-.35.95-.71S147,368.18,147,368.18Z" transform="translate(0.39 -70.84)" fill="url(#linear-gradient-93)"/><path d="M107.68,371.38s-1.22,0-1.19.56,1.15.55,1.15.55a3.06,3.06,0,0,0,2,.85,2.59,2.59,0,0,0,1.82-.48s2.49.24,2.53-.5-2.37-.87-2.37-.87-.3-.64-2.18-.71A2.14,2.14,0,0,0,107.68,371.38Z" transform="translate(0.39 -70.84)" fill="url(#linear-gradient-94)"/><path d="M124,372.23s1.21.2,1.1.72-1.21.39-1.21.39a3.06,3.06,0,0,1-2.1.56,2.56,2.56,0,0,1-1.73-.74s-2.51-.12-2.44-.86,2.47-.52,2.47-.52.39-.6,2.26-.39A2.07,2.07,0,0,1,124,372.23Z" transform="translate(0.39 -70.84)" fill="url(#linear-gradient-95)"/><polygon points="147.71 293.18 147.71 300.95 156.12 300.5 156.12 298.79 147.71 293.18" fill="url(#linear-gradient-96)"/></g></svg>